<?xml version="1.0" encoding="UTF-8"?>
<!DOCTYPE svg PUBLIC "-//W3C//DTD SVG 1.1//EN" "http://www.w3.org/Graphics/SVG/1.1/DTD/svg11.dtd">
<!-- Creator: CorelDRAW X7 -->
<svg xmlns="http://www.w3.org/2000/svg" xml:space="preserve" width="7.2175in" height="7.96361in" version="1.1" style="shape-rendering:geometricPrecision; text-rendering:geometricPrecision; image-rendering:optimizeQuality; fill-rule:evenodd; clip-rule:evenodd"
viewBox="0 0 7214 7960"
 xmlns:xlink="http://www.w3.org/1999/xlink">
 <defs>
  <style type="text/css">
   <![CDATA[
    .fil0 {fill:#2B6043}
    .fil2 {fill:#5FA873}
    .fil4 {fill:#821E46}
    .fil1 {fill:#8ADD99}
    .fil5 {fill:#FF881D}
    .fil3 {fill:#FFD600}
   ]]>
  </style>
 </defs>
 <g id="Capa_x0020_1">
  <metadata id="CorelCorpID_0Corel-Layer"/>
  <g id="_2684199716896">
   <g>
    <path id="uuid-c531b762-37fd-48fe-bfe7-74de1811709a" class="fil0" d="M3530 4212c-3,196 0,386 12,565 2,36 4,71 7,106 15,199 47,397 96,590 9,34 19,69 30,101 52,259 228,477 470,585 156,45 325,32 472,-37 225,-121 385,-337 435,-588 9,-24 15,-49 21,-73 45,-192 70,-388 75,-586 3,-24 4,-49 4,-76 5,-190 0,-396 -16,-615 0,-19 -2,-39 -4,-59 -15,-210 -38,-432 -67,-663 -3,-28 -8,-58 -10,-88 -28,-197 -57,-399 -91,-607 -4,-25 -8,-52 -13,-77 -22,-132 -414,-2178 -420,-2211 -33,-158 -98,-461 -202,-466 -112,-6 -211,335 -248,463 -7,25 -15,52 -23,84 -13,44 -26,94 -40,150 -12,50 -56,244 -67,286 -11,42 -48,228 -59,278 -30,149 -106,562 -112,603 -19,102 -65,387 -70,424 -18,121 -64,453 -69,494 -24,189 -45,382 -62,575 -4,44 -8,87 -10,130 -18,202 -28,400 -34,594 0,0 0,79 -3,117l-2 1zm0 0l0 0 0 0z" data-name="Trazado 5251"/>
   </g>
   <g>
    <path id="uuid-8160116b-6908-4141-9e7f-4169b4231016" class="fil1" d="M3890 1274c262,8 534,-11 793,-25 -6,-31 -13,-62 -18,-93 -245,-13 -498,-31 -744,-27 -10,46 -21,95 -31,145l0 0zm0 0l0 0 0 0z" data-name="Trazado 5252"/>
   </g>
   <g>
    <path id="uuid-6a8a8deb-8a74-4e7f-8ef4-cec8261102e2" class="fil1" d="M3776 1878c153,6 308,-4 460,-6 188,0 377,-3 566,-9 -6,-28 -10,-59 -18,-88 -182,-6 -365,-9 -548,-10 -144,0 -292,-10 -437,-6 -8,39 -15,79 -22,119l-1 0zm0 0l0 0 0 0z" data-name="Trazado 5253"/>
   </g>
   <g>
    <path id="uuid-ca425392-77ba-4021-8e2f-1adcba6640bd" class="fil1" d="M3707 2302c387,25 788,0 1173,-12 -5,-28 -9,-55 -15,-83 -377,-10 -764,-36 -1141,-13 -5,37 -12,72 -17,108l0 0zm0 0l0 0 0 0z" data-name="Trazado 5254"/>
   </g>
   <g>
    <path id="uuid-76c4e030-9cd0-4ad9-b873-f1f27e6f3403" class="fil0" d="M3680 7241c99,103 235,162 378,163 433,36 868,-395 1230,-972 24,-37 47,-76 70,-115 151,-258 286,-527 402,-804 10,-26 22,-52 33,-79 88,-214 163,-427 222,-623 6,-18 10,-36 16,-54 5,-17 9,-27 12,-43 48,-168 87,-337 119,-505 7,-38 13,-76 20,-113 41,-240 69,-483 82,-726 2,-35 4,-69 6,-104 6,-147 7,-292 5,-433 0,-41 -2,-80 -3,-122 -9,-204 -25,-402 -46,-586 -6,-42 -10,-83 -16,-123 -13,-94 -28,-185 -43,-273 -7,-45 -16,-88 -24,-131 -22,-115 -48,-222 -72,-320 -10,-38 -20,-75 -30,-108 -108,-384 -225,-612 -280,-606 -54,6 -27,207 -27,569l0 89c0,95 -4,198 -10,311 -1,33 -3,65 -6,99 -7,98 -15,203 -28,313 -3,30 -7,61 -12,92 -9,74 -21,152 -33,231 -19,120 -42,238 -67,353 -6,28 -13,56 -19,82 -34,150 -72,296 -115,438 -9,33 -19,64 -28,97 -69,225 -149,439 -232,646 -10,28 -22,55 -34,82 -62,149 -128,293 -195,433 -14,28 -28,55 -40,82 -91,183 -183,355 -274,521 -14,23 -28,47 -41,70 -124,220 -247,424 -362,611 -17,27 -33,56 -50,82 -434,711 -731,1195 -503,1477l-5 -1zm0 0l0 0 0 0z" data-name="Trazado 5255"/>
   </g>
   <g>
    <path id="uuid-f438cee0-7049-436d-94cb-d604c4f2da02" class="fil1" d="M5730 1223c113,21 226,41 337,56 -10,-38 -20,-73 -30,-108 -103,-11 -206,-23 -307,-36l0 89 0 -1zm0 0l0 0 0 0z" data-name="Trazado 5256"/>
   </g>
   <g>
    <path id="uuid-7493b8fd-0790-4d5d-8860-8d56c8b72cdd" class="fil1" d="M5715 1633c148,45 298,78 452,97 -8,-46 -16,-88 -25,-131 -140,-21 -282,-41 -420,-65 -1,32 -4,65 -7,99l0 0zm0 0l0 0 0 0z" data-name="Trazado 5257"/>
   </g>
   <g>
    <path id="uuid-e2e06cba-571f-468f-925f-0dd64ef7d21b" class="fil1" d="M5675 2038c181,41 365,69 549,87 -5,-42 -10,-82 -16,-122 -174,-15 -348,-32 -522,-58 -3,31 -8,62 -12,94l1 -1zm0 0l0 0 0 0z" data-name="Trazado 5258"/>
   </g>
   <g>
    <path id="uuid-b48f51a1-bffb-41c7-91ae-e876d84cbad5" class="fil1" d="M5556 2703c234,69 475,112 718,129 0,-41 -2,-80 -3,-121 -232,-25 -464,-46 -695,-91 -7,28 -13,57 -19,83l-1 0zm0 0l0 0 0 0z" data-name="Trazado 5259"/>
   </g>
   <g>
    <path id="uuid-d6118740-6cff-4940-8559-295eb91d3753" class="fil1" d="M5412 3237c271,105 561,150 850,133 3,-35 4,-69 6,-104 -133,-20 -270,-20 -403,-39 -143,-21 -284,-54 -424,-84 -10,32 -19,64 -28,97l-1 -3zm0 0l0 0 0 0z" data-name="Trazado 5260"/>
   </g>
   <g>
    <path id="uuid-89a59215-cb4d-4c83-be0d-e8cb16848fa2" class="fil1" d="M5145 3964c319,149 665,233 1017,245 8,-39 14,-76 20,-113 -153,-6 -305,-21 -456,-48 -187,-38 -369,-94 -546,-165 -10,27 -22,54 -34,81l-1 0zm0 0l0 0 0 0z" data-name="Trazado 5261"/>
   </g>
   <g>
    <path id="uuid-32af282d-b0cd-492e-9ed5-323d14ba95b0" class="fil0" d="M3956 7621c61,151 184,269 337,323 273,50 556,-24 770,-203 32,-20 64,-43 96,-67 159,-118 307,-250 442,-393 22,-24 46,-50 70,-76 150,-165 289,-338 418,-521 17,-24 34,-48 50,-73 118,-171 227,-349 327,-532 17,-28 31,-56 48,-84 86,-163 167,-331 240,-504 10,-24 22,-49 31,-72 62,-149 119,-304 169,-459 14,-43 28,-85 40,-130 58,-196 106,-397 140,-600 0,-3 0,-8 2,-10 7,-36 12,-70 18,-106 24,-162 40,-323 50,-480 2,-42 4,-82 5,-122 7,-154 6,-302 0,-440 0,-40 -3,-81 -5,-120 -6,-73 -12,-143 -19,-207 -6,-44 -12,-88 -18,-127 -44,-282 -116,-464 -195,-473 -70,-9 -115,127 -176,363 -9,31 -17,61 -24,95 -16,60 -65,251 -72,281 -36,132 -77,280 -128,439 -8,24 -17,51 -25,76 -43,131 -92,268 -150,411 -10,27 -21,56 -34,84 -84,204 -178,403 -284,597 -6,13 -12,25 -20,39 -8,13 -18,31 -28,47 -72,130 -148,253 -225,373 -15,22 -30,46 -46,69 -107,162 -218,312 -329,454 -15,20 -31,40 -48,60 -136,170 -273,328 -403,472 -19,21 -38,41 -54,61 -113,123 -360,384 -376,403 -119,126 -226,242 -318,352 -19,24 -38,48 -56,71 -212,270 -313,500 -221,731l1 -2zm0 0l0 0 0 0z" data-name="Trazado 5262"/>
   </g>
   <g>
    <path id="uuid-d3999765-3faf-48c5-9842-698b3ea04c9a" class="fil1" d="M6772 2603c134,56 272,103 413,140 -6,-44 -12,-87 -18,-127 -123,-33 -247,-70 -370,-109 -9,30 -17,61 -25,94l0 2zm0 0l0 0 0 0z" data-name="Trazado 5263"/>
   </g>
   <g>
    <path id="uuid-e21a078b-9222-463a-962e-4805ed29837a" class="fil1" d="M6700 2883c164,78 334,142 509,189 0,-40 -3,-81 -5,-120 -164,-43 -325,-95 -482,-154 -8,28 -15,56 -22,84l0 1zm0 0l0 0 0 0z" data-name="Trazado 5264"/>
   </g>
   <path id="uuid-e3002974-8085-4493-974f-15029f041246" class="fil1" d="M6547 3398c204,117 427,197 658,237 3,-41 4,-81 6,-122 -217,-50 -431,-113 -639,-191 -8,25 -16,50 -25,76z" data-name="Trazado 5265"/>
   <g>
    <path id="uuid-feb955ea-6f1a-4424-bf06-87faf4d157ac" class="fil1" d="M6363 3892c247,137 505,249 773,337 0,-3 0,-7 3,-10 6,-36 12,-70 17,-106 -5,0 -12,-2 -17,-4 -256,-78 -504,-179 -741,-302 -10,28 -21,57 -34,84l-1 1zm0 0l0 0 0 0z" data-name="Trazado 5266"/>
   </g>
   <g>
    <path id="uuid-558997b1-2134-48e6-a78b-eadc0f719738" class="fil1" d="M6032 4574c286,175 597,305 923,386 13,-43 28,-85 39,-130 -320,-67 -628,-183 -915,-342 -7,13 -13,26 -21,39 -8,14 -18,31 -28,48l2 -1zm0 0l0 0 0 0z" data-name="Trazado 5267"/>
   </g>
  </g>
  <g>
   <g>
    <path id="uuid-dcbe5cdc-f2fa-4440-9c1e-66ecd8224808" class="fil2" d="M3444 7695c8,11 15,21 24,30 52,50 116,84 187,98 8,2 17,4 26,5 741,115 1960,-1809 2611,-3175 125,-256 237,-517 334,-784 60,-142 98,-293 112,-447 0,-43 -8,-71 -26,-82 -24,-17 -69,0 -133,47 -485,459 -940,948 -1360,1467 -573,617 -1099,1277 -1570,1976 -102,158 -181,330 -235,510 -44,117 -33,248 30,356l0 -1zm0 0l0 0 0 0z" data-name="Trazado 5268"/>
   </g>
   <path id="uuid-7733a7ed-d8f1-494b-a1d3-b36a80522568" class="fil1" d="M3415 7339c509,-482 987,-1001 1446,-1520 679,-756 1306,-1556 1878,-2397 0,-43 -7,-71 -26,-82 -23,-17 -68,0 -132,47 -588,794 -1190,1573 -1848,2312 -349,391 -713,764 -1083,1130 -101,159 -180,330 -235,510z" data-name="Trazado 5269"/>
   <g>
    <path id="uuid-345b1fd4-eca9-4467-95bd-3638edf1f9f0" class="fil1" d="M3469 7726c52,50 117,83 187,98 9,2 17,4 26,5 533,-536 1037,-1101 1508,-1693 389,-477 760,-971 1103,-1482 125,-255 237,-517 335,-783 -488,770 -1021,1510 -1597,2217 -491,574 -1012,1121 -1562,1639l0 -1zm0 0l0 0 0 0z" data-name="Trazado 5270"/>
   </g>
   <g>
    <path id="uuid-534c3179-7dc0-4ad1-85f2-7ea5c6d46cd1" class="fil2" d="M3039 7198c1,135 25,270 70,397 35,99 102,184 190,241 76,46 165,68 254,63 26,-1 52,-4 79,-9 64,-12 125,-36 181,-70 1143,-670 1683,-5407 1784,-6293 42,-366 67,-648 77,-863 15,-170 13,-341 -6,-511 -16,-105 -43,-144 -74,-151 -31,-8 -60,11 -97,49 -83,101 -153,212 -207,330 -123,239 -263,568 -402,910 -784,1920 -1893,4637 -1850,5906l1 1zm0 0l0 0 0 0z" data-name="Trazado 5271"/>
   </g>
   <g>
    <path id="uuid-c3104516-1835-46fa-a439-08349ac8f2ef" class="fil1" d="M3632 7890c64,-12 125,-35 181,-70 177,-497 317,-1010 467,-1511 221,-732 427,-1468 618,-2208 293,-1133 576,-2280 776,-3437 15,-170 13,-341 -6,-511 -289,1282 -543,2571 -874,3845 -192,740 -398,1476 -619,2210 -170,562 -377,1117 -543,1682l0 0zm0 0l0 0 0 0z" data-name="Trazado 5272"/>
   </g>
   <g>
    <path id="uuid-2b838c3b-0c40-4d5d-8217-2bd00314143b" class="fil1" d="M3039 7198c1,135 25,270 70,397 419,-1042 761,-2127 1110,-3183 501,-1430 928,-2886 1278,-4360 -83,101 -153,211 -208,330 -394,1309 -747,2629 -1180,3927 -326,974 -708,1929 -1071,2890l1 -1zm0 0l0 0 0 0z" data-name="Trazado 5273"/>
   </g>
   <g>
    <path id="uuid-9bca4c5e-6246-43af-8785-de2c3867b039" class="fil2" d="M75 1446c56,194 131,410 194,586 6,17 12,33 17,48 962,2661 1895,5247 2703,5769 33,22 68,41 105,56 77,35 162,47 245,34 79,-15 152,-51 210,-105l24 -23c28,-28 52,-60 71,-95 555,-987 -1820,-4585 -2806,-5925 -165,-233 -343,-455 -534,-666 -58,-68 -129,-126 -207,-169 -19,-11 -42,-12 -62,-4 -67,37 -30,247 42,495l-2 -1zm0 0l0 0 0 0z" data-name="Trazado 5274"/>
   </g>
   <g>
    <path id="uuid-301c1ba2-25fe-4071-a301-f61336e75b72" class="fil1" d="M96 955c660,995 1269,2023 1825,3080 642,1228 1173,2585 1711,3855 34,-7 54,-53 74,-89 -376,-1243 -1040,-2545 -1626,-3693 -529,-1031 -1122,-2028 -1778,-2984 -58,-68 -128,-125 -207,-169l1 0zm0 0l0 0 0 0z" data-name="Trazado 5275"/>
   </g>
   <g>
    <path id="uuid-b10a442a-7934-43bd-8385-9996d44f8450" class="fil1" d="M76 1446c55,194 131,410 194,586 397,714 785,1432 1144,2166 585,1196 1065,2425 1575,3649 33,22 68,41 105,57 -418,-1246 -923,-2461 -1511,-3637 -455,-965 -958,-1907 -1508,-2822l1 1zm0 0l0 0 0 0z" data-name="Trazado 5276"/>
   </g>
  </g>
  <g>
   <g>
    <path id="uuid-28360241-1f7a-4a40-9e20-1c1e424e659a" class="fil3" d="M3591 3130c-2,-165 -67,-323 -180,-443 -48,-54 -120,-79 -191,-65 -59,29 -101,83 -115,147 -55,232 -32,475 66,693 43,112 145,453 286,238 102,-172 149,-371 135,-570l-1 0zm0 0l0 0 0 0z" data-name="Trazado 5286"/>
   </g>
   <g>
    <path id="uuid-6fa51630-2e0d-47bc-b4e5-c1ed391621a4" class="fil4" d="M2608 3967c-162,-33 -305,-126 -402,-259 -45,-57 -56,-133 -29,-200 39,-52 100,-84 166,-85 238,-12 473,56 668,193 103,63 419,226 182,325 -188,68 -392,78 -585,27l0 -1zm0 0l0 0 0 0z" data-name="Trazado 5287"/>
   </g>
   <g>
    <path id="uuid-2e8e5351-3b8f-4c98-9d5f-77da38224fb4" class="fil4" d="M2759 4362c-98,132 -143,297 -126,461 4,72 47,136 112,167 65,14 131,-3 181,-46 185,-151 314,-359 368,-591 34,-115 160,-448 -82,-363 -185,75 -343,204 -453,371l0 1zm0 0l0 0 0 0z" data-name="Trazado 5288"/>
   </g>
   <g>
    <path id="uuid-4b4616ba-249b-4633-b9c7-c3b595af9514" class="fil3" d="M4180 3764c148,-74 263,-199 323,-353 29,-66 20,-143 -23,-201 -51,-41 -118,-56 -182,-40 -233,49 -443,175 -597,357 -83,86 -347,325 -93,360 199,18 398,-25 572,-123l0 0zm0 0l0 0 0 0z" data-name="Trazado 5289"/>
   </g>
   <g>
    <path id="uuid-cc6b74e2-0d99-4d3b-811c-c4ca17a89073" class="fil4" d="M4135 4183c128,104 214,251 239,414 14,71 -11,144 -66,191 -58,29 -127,30 -186,1 -217,-99 -396,-266 -507,-477 -62,-103 -268,-393 -13,-372 198,25 384,110 533,243l0 0zm0 0l0 0 0 0z" data-name="Trazado 5290"/>
   </g>
   <g>
    <path id="uuid-010272a6-6f34-44f5-bf61-3cbb2dbfc8c0" class="fil5" d="M3498 3277c-1,-96 -39,-188 -105,-258 -28,-32 -70,-46 -111,-38 -35,17 -59,48 -67,86 -32,135 -19,277 39,404 24,65 84,263 166,138 59,-100 87,-215 78,-331l0 -1zm0 0l0 0 0 0z" data-name="Trazado 5291"/>
   </g>
   <g>
    <path id="uuid-1c7946ad-42b0-41a3-8084-b8a43c67e261" class="fil5" d="M2948 3893c-95,-19 -178,-73 -235,-151 -26,-33 -32,-77 -16,-116 22,-31 58,-49 96,-50 139,-7 276,32 390,112 59,36 244,132 105,189 -109,40 -228,45 -340,16l0 0zm0 0l0 0 0 0z" data-name="Trazado 5292"/>
   </g>
   <g>
    <path id="uuid-ab2a20ae-9cc3-47c2-8786-8c78a121bfc9" class="fil5" d="M3036 4124c-58,77 -84,173 -74,269 3,42 28,79 66,97 37,8 76,-2 105,-27 107,-88 183,-209 214,-344 20,-67 93,-261 -48,-211 -108,43 -200,119 -264,216l1 0zm0 0l0 0 0 0z" data-name="Trazado 5293"/>
   </g>
   <g>
    <path id="uuid-58edb735-ae79-46e4-8380-33abc0f639d4" class="fil5" d="M3957 3791c87,-42 154,-116 188,-206 17,-38 12,-83 -13,-116 -30,-24 -69,-33 -106,-24 -136,29 -259,102 -348,208 -49,50 -203,189 -54,210 115,11 232,-14 333,-72l0 0zm0 0l0 0 0 0z" data-name="Trazado 5294"/>
   </g>
   <g>
    <path id="uuid-908e6bfa-1aa9-4afe-9647-de615fa998cd" class="fil5" d="M3838 4020c75,60 124,146 139,241 8,42 -6,84 -38,112 -34,17 -75,17 -109,0 -127,-57 -230,-155 -295,-278 -37,-59 -157,-228 -8,-216 116,14 224,64 311,141l0 0zm0 0l0 0 0 0z" data-name="Trazado 5295"/>
   </g>
   <path id="uuid-d1695a1d-47fb-428b-9b35-967f00d88eba" class="fil3" d="M3220 3879c25,106 131,170 236,145 106,-25 171,-131 145,-237 -25,-105 -131,-170 -236,-144 -106,25 -170,131 -145,236 0,0 0,0 0,0z" data-name="Trazado 5296"/>
   <g>
    <path id="uuid-ec249e40-5850-4380-8096-4bc271481332" class="fil3" d="M2874 3211c-33,-26 -71,-42 -112,-49 -12,-2 -24,0 -34,7 -19,15 -11,44 1,65 50,78 118,142 198,188 80,46 155,100 222,163 -18,-30 -32,-62 -42,-96 -51,-112 -132,-208 -233,-278l0 0zm0 0l0 0 0 0z" data-name="Trazado 5297"/>
   </g>
   <g>
    <path id="uuid-0314a087-1123-42c9-88af-04e4c4d0d09e" class="fil4" d="M3769 3095c24,-34 57,-60 94,-78 11,-5 23,-6 34,-3 22,9 23,40 18,63 -27,88 -75,169 -139,235 -64,66 -121,139 -169,218 10,-34 14,-69 14,-104 19,-121 70,-236 148,-331l0 0zm0 0l0 0 0 0z" data-name="Trazado 5298"/>
   </g>
   <g>
    <path id="uuid-6539518f-d692-4459-b271-a11c2bd868e3" class="fil3" d="M4242 3967c39,16 73,41 98,73 8,9 12,21 12,32 -4,24 -33,32 -57,32 -92,-4 -182,-31 -262,-77 -79,-47 -164,-84 -252,-111 35,1 70,-3 104,-11 41,-5 83,-5 124,-1 81,7 160,28 234,63l-1 0zm0 0l0 0 0 0z" data-name="Trazado 5299"/>
   </g>
   <g>
    <path id="uuid-d76a9c48-2599-4f39-9c0c-181776dc3285" class="fil3" d="M3514 4540c-3,41 -18,80 -41,115 -6,10 -16,18 -27,20 -24,4 -40,-22 -47,-44 -23,-90 -24,-183 -4,-273 21,-90 32,-182 32,-274 10,34 24,66 42,96 47,114 63,238 46,360l-1 0zm0 0l0 0 0 0z" data-name="Trazado 5300"/>
   </g>
   <g>
    <path id="uuid-f5333acd-a192-4ee7-9a1e-eb4a380d8b65" class="fil3" d="M2624 4245c-40,11 -82,11 -122,1 -12,-3 -22,-10 -29,-19 -11,-21 8,-45 26,-60 77,-52 164,-85 256,-96 92,-10 182,-31 268,-63 -25,11 -55,53 -76,72 -91,82 -202,140 -323,165l0 0zm0 0l0 0 0 0z" data-name="Trazado 5301"/>
   </g>
  </g>
  <g>
   <g>
    <path id="uuid-28360241-1f7a-4a40-9e20-1c1e424e659a_0" class="fil3" d="M2082 6268c-2,-112 -46,-219 -123,-301 -32,-37 -82,-54 -129,-44 -41,19 -70,56 -79,100 -37,157 -21,323 45,470 29,76 99,308 195,162 69,-117 101,-252 91,-387l0 0zm0 0l0 0 0 0z" data-name="Trazado 5286"/>
   </g>
   <g>
    <path id="uuid-6fa51630-2e0d-47bc-b4e5-c1ed391621a4_1" class="fil4" d="M1414 6837c-110,-23 -208,-86 -273,-177 -31,-38 -38,-90 -20,-135 26,-36 68,-58 112,-58 162,-8 322,38 455,131 69,42 284,154 123,221 -128,46 -266,52 -397,18l0 0zm0 0l0 0 0 0z" data-name="Trazado 5287"/>
   </g>
   <g>
    <path id="uuid-2e8e5351-3b8f-4c98-9d5f-77da38224fb4_2" class="fil4" d="M1516 7105c-66,90 -97,202 -85,313 3,49 32,92 76,114 44,9 89,-3 122,-32 126,-102 214,-244 251,-401 23,-78 108,-304 -56,-247 -126,51 -233,139 -308,252l0 1zm0 0l0 0 0 0z" data-name="Trazado 5288"/>
   </g>
   <g>
    <path id="uuid-4b4616ba-249b-4633-b9c7-c3b595af9514_3" class="fil3" d="M2482 6698c100,-50 178,-135 219,-240 20,-44 14,-96 -16,-135 -35,-28 -80,-39 -123,-28 -159,33 -302,119 -406,242 -56,59 -236,221 -63,245 135,13 271,-17 388,-84l1 0zm0 0l0 0 0 0z" data-name="Trazado 5289"/>
   </g>
   <g>
    <path id="uuid-cc6b74e2-0d99-4d3b-811c-c4ca17a89073_4" class="fil4" d="M2451 6983c87,70 145,171 162,282 10,48 -7,97 -45,129 -39,20 -86,20 -126,1 -147,-67 -269,-181 -344,-325 -42,-69 -182,-266 -9,-252 135,17 261,75 362,165l0 0zm0 0l0 0 0 0z" data-name="Trazado 5290"/>
   </g>
   <g>
    <path id="uuid-010272a6-6f34-44f5-bf61-3cbb2dbfc8c0_5" class="fil5" d="M2019 6368c-1,-65 -27,-128 -72,-176 -19,-21 -47,-31 -75,-25 -24,11 -41,33 -46,58 -22,92 -13,188 26,274 17,45 57,179 113,95 41,-69 59,-147 53,-226l1 0zm0 0l0 0 0 0z" data-name="Trazado 5291"/>
   </g>
   <g>
    <path id="uuid-1c7946ad-42b0-41a3-8084-b8a43c67e261_6" class="fil5" d="M1645 6786c-65,-13 -122,-49 -160,-102 -18,-23 -22,-53 -11,-79 15,-21 40,-34 65,-34 95,-5 188,22 265,76 41,25 166,89 72,128 -74,27 -155,31 -232,11l1 0zm0 0l0 0 0 0z" data-name="Trazado 5292"/>
   </g>
   <g>
    <path id="uuid-ab2a20ae-9cc3-47c2-8786-8c78a121bfc9_7" class="fil5" d="M1704 6943c-39,52 -56,118 -50,183 2,28 19,53 45,66 25,5 52,-2 71,-18 73,-60 124,-142 146,-234 13,-46 63,-177 -33,-144 -73,30 -136,81 -179,147l0 0zm0 0l0 0 0 0z" data-name="Trazado 5293"/>
   </g>
   <g>
    <path id="uuid-58edb735-ae79-46e4-8380-33abc0f639d4_8" class="fil5" d="M2330 6717c59,-29 105,-79 128,-140 12,-26 8,-56 -9,-79 -20,-16 -47,-22 -72,-16 -92,19 -176,69 -237,141 -33,34 -137,129 -36,143 78,7 157,-10 226,-49l0 0zm0 0l0 0 0 0z" data-name="Trazado 5294"/>
   </g>
   <g>
    <path id="uuid-908e6bfa-1aa9-4afe-9647-de615fa998cd_9" class="fil5" d="M2249 6872c51,41 85,100 95,164 5,28 -5,57 -26,76 -23,11 -51,12 -74,0 -86,-39 -157,-105 -201,-189 -25,-40 -106,-155 -5,-147 79,10 152,44 211,97l0 -1zm0 0l0 0 0 0z" data-name="Trazado 5295"/>
   </g>
   <path id="uuid-d1695a1d-47fb-428b-9b35-967f00d88eba_10" class="fil3" d="M1829 6777c18,71 89,115 161,98 72,-17 116,-89 98,-161 -17,-71 -89,-115 -160,-98 -72,17 -116,89 -99,161 0,0 0,0 0,0z" data-name="Trazado 5296"/>
   <g>
    <path id="uuid-ec249e40-5850-4380-8096-4bc271481332_11" class="fil3" d="M1594 6323c-22,-17 -48,-29 -76,-33 -8,-2 -16,0 -23,4 -12,10 -7,30 1,44 34,53 80,97 134,128 55,31 105,68 151,111 -12,-20 -22,-42 -28,-65 -35,-76 -90,-141 -158,-189l-1 0zm0 0l0 0 0 0z" data-name="Trazado 5297"/>
   </g>
   <g>
    <path id="uuid-0314a087-1123-42c9-88af-04e4c4d0d09e_12" class="fil4" d="M2202 6244c17,-23 39,-41 64,-53 8,-3 16,-4 24,-2 14,6 15,27 11,43 -18,60 -50,115 -94,160 -43,45 -82,94 -114,148 6,-23 9,-47 9,-71 13,-83 47,-160 100,-225l0 0zm0 0l0 0 0 0z" data-name="Trazado 5298"/>
   </g>
   <g>
    <path id="uuid-6539518f-d692-4459-b271-a11c2bd868e3_13" class="fil3" d="M2524 6836c26,11 49,28 67,50 5,6 8,14 7,22 -2,16 -22,21 -38,21 -63,-2 -124,-21 -178,-52 -54,-32 -112,-57 -171,-75 23,0 47,-2 70,-8 28,-3 56,-3 84,0 55,4 109,19 159,42l0 0zm0 0l0 0 0 0z" data-name="Trazado 5299"/>
   </g>
   <g>
    <path id="uuid-d76a9c48-2599-4f39-9c0c-181776dc3285_14" class="fil3" d="M2029 7225c-2,28 -12,55 -27,79 -5,7 -12,12 -19,14 -16,2 -27,-15 -32,-31 -16,-60 -16,-124 -2,-185 14,-61 21,-123 21,-186 7,23 16,45 28,65 33,78 43,162 32,245l-1 -1zm0 0l0 0 0 0z" data-name="Trazado 5300"/>
   </g>
   <g>
    <path id="uuid-f5333acd-a192-4ee7-9a1e-eb4a380d8b65_15" class="fil3" d="M1425 7026c-27,7 -56,7 -83,0 -8,-2 -15,-7 -20,-13 -7,-14 5,-31 18,-40 52,-36 111,-58 174,-66 62,-7 123,-21 182,-43 -17,8 -38,36 -52,49 -62,56 -137,95 -219,112l0 1zm0 0l0 0 0 0z" data-name="Trazado 5301"/>
   </g>
  </g>
 </g>
</svg>
