<?xml version="1.0" encoding="UTF-8"?>
<!DOCTYPE svg PUBLIC "-//W3C//DTD SVG 1.1//EN" "http://www.w3.org/Graphics/SVG/1.1/DTD/svg11.dtd">
<!-- Creator: CorelDRAW X7 -->
<svg xmlns="http://www.w3.org/2000/svg" xml:space="preserve" width="9.25in" height="2.36888in" version="1.1" style="shape-rendering:geometricPrecision; text-rendering:geometricPrecision; image-rendering:optimizeQuality; fill-rule:evenodd; clip-rule:evenodd"
viewBox="0 0 9629 2466"
 xmlns:xlink="http://www.w3.org/1999/xlink">
 <defs>
  <style type="text/css">
   <![CDATA[
    .fil2 {fill:#312C52}
    .fil3 {fill:#31708F}
    .fil5 {fill:#97A479}
    .fil6 {fill:#C79559}
    .fil1 {fill:#D3C970}
    .fil4 {fill:#D65755}
    .fil0 {fill:#EC9052}
   ]]>
  </style>
 </defs>
 <g id="Capa_x0020_1">
  <metadata id="CorelCorpID_0Corel-Layer"/>
  <g id="_1985877765840">
   <path class="fil0" d="M2631 2415l-86 0 44 -217c0,-53 -7,-74 9,-121 1,-4 7,-16 8,-20 25,-70 4,-50 40,-76 41,72 -1,376 -15,434zm-1113 -1504c101,-49 185,-23 332,-12 24,91 15,122 15,229 -71,47 -257,104 -303,58 -18,-36 -44,-219 -44,-275zm15 -304c48,-4 69,-20 126,-11l192 11 0 217c-304,25 -318,86 -318,-217zm911 0c83,-19 180,15 303,15 7,81 29,113 29,217 -163,0 -279,27 -303,-73l-29 -159zm-625 -58l-229 0c-16,-70 -14,-100 -14,-188 55,27 167,15 246,15 21,88 18,31 -3,173zm711 -202l217 0 0 202c-31,7 -211,6 -231,-14 -25,-51 -10,-51 -17,-115 -4,-37 -29,-73 31,-73zm-954 -29c17,-65 81,-93 113,-93 77,-2 103,35 133,79 -66,1 -84,14 -246,14zm896 -14c48,-91 62,-71 101,-131 8,-12 7,-6 15,-28l15 14c43,38 100,72 115,130 -101,0 -141,15 -246,15zm-983 957l0 1009c31,-24 32,13 29,-116l0 -911 405 0c-12,-109 -17,23 -29,-86 142,-96 179,-58 203,-116 148,0 113,48 208,110 48,32 33,3 66,49l-246 0 0 43c176,0 250,22 347,-43 -14,-30 -56,-268 -17,-307 11,-12 261,3 321,3l0 304 -124 18c-58,6 -41,8 -49,40 76,0 85,1 144,14 0,175 -7,689 18,850 13,87 11,185 11,293 -57,0 -59,-5 -101,-15 0,-71 57,-337 22,-441 -17,-51 -6,12 -22,-65 -13,-68 21,-21 -29,-58 -12,45 -20,34 -46,84l-41 90c-32,-140 -29,-362 -29,-536 -40,22 -12,-10 -21,31 -2,8 -1,47 -1,57 3,53 15,58 -7,72l29 781c-18,-5 -51,6 -58,-101 -3,-55 5,-120 0,-173 -5,-45 -25,-81 -29,-131 -4,-72 13,-103 -14,-159l-43 0c-24,48 -15,131 -15,202l-14 0c0,-78 -20,-12 -29,-101 -11,-103 7,-33 -29,-101l0 14c-37,96 41,319 43,419l44 0c0,-33 -2,-70 -1,-102 1,-68 -11,-56 44,-71 0,450 37,255 -269,309 -31,6 -160,24 -179,24l0 14c172,0 986,26 1070,-14 -19,-46 -18,-22 -87,-58 0,-266 -29,-388 -29,-637 0,-226 0,-453 0,-679 97,0 133,-14 217,-15 96,-1 125,15 217,15 -19,-17 -12,-9 -60,-1 -6,-72 -4,-101 1,-176 35,36 4,51 36,83 6,6 17,7 23,10 -26,-59 -19,1 -32,-89 -7,-45 -17,-55 45,-59 109,-9 120,30 233,30 -32,-17 -18,1 -46,-34l89 -10c-189,0 -103,-11 -176,-26 -21,-5 -195,-17 -214,-17 2,101 29,26 29,231l-13 4c-143,27 -253,-7 -392,25 0,231 0,463 0,694l29 491c0,63 0,126 0,189 -57,0 -59,-5 -102,-15l-14 -391c-1,-72 -14,-71 -15,-143 -3,-197 1,-397 1,-594l57 0c-2,-95 -30,-35 -29,-158 0,-71 -2,-116 -8,-180 -8,-84 10,5 6,-67 -2,-55 -15,-8 -26,-72 -7,-39 0,-156 0,-202 0,-61 4,-125 -6,-182 -59,-343 -55,-142 -125,-266 -24,-43 -23,-95 -57,-145 -56,239 -151,198 -174,275 -13,42 32,236 43,260 -178,119 17,155 -51,323 -43,106 -6,195 -6,313 -40,-10 -45,-21 -81,-49 -32,-25 -38,-32 -73,-58 -96,-72 -66,-103 -150,-110 -7,85 -76,85 -217,159 0,-174 11,-415 -23,-598 -17,-92 8,-116 23,-182l-46 -84c-53,-67 -125,18 -128,-133 -1,-81 21,-84 -43,-102l0 174c-89,47 -146,44 -146,188 1,66 26,98 14,156 -14,67 -35,22 -45,130 -5,55 -16,192 -11,307 5,138 62,161 0,292z"/>
   <path class="fil1" d="M4294 2444c2,-86 58,-149 99,-220 18,-33 18,-42 40,-76 24,-37 19,-24 37,-64 29,-68 108,-168 113,-233 41,29 266,523 275,564l-176 11c-30,2 -53,3 -84,3 -115,0 -180,15 -304,15zm-87 -781c0,-72 86,-73 160,-73 18,52 48,28 72,131 -106,2 -21,28 -188,28 -15,-22 -44,-52 -44,-86zm-549 -839l-89 10c28,35 14,17 46,34 85,0 58,69 58,159 -54,0 -107,0 -160,0 -88,0 -83,-4 -144,-41 -6,-3 -17,-4 -23,-10 -32,-32 -1,-47 -36,-83 -5,75 -7,104 -1,176 48,-8 41,-16 60,1 223,0 82,21 187,29 148,12 117,-93 117,491 0,275 0,550 0,825 -202,0 -76,29 -246,29l405 14 390 -550c2,-2 5,-5 7,-7l57 -58c82,-69 171,-47 254,-7 -2,76 -155,323 -255,497 -73,126 -239,82 -396,82 16,57 11,44 86,44 201,0 805,21 912,-30 0,-74 45,32 -38,-135 -30,-58 -43,-84 -69,-148l-67 -136c-23,-53 -51,-88 -57,-159 40,-10 20,0 47,-29l-4 -37c62,-2 56,3 95,-21 -21,-17 30,-8 -50,-26l42 7c-13,-26 25,-27 -101,-25 -99,2 -177,23 -230,-74 -18,-34 -11,9 -16,-56l361 0 0 60c14,-15 9,-6 23,-31 10,-21 2,-6 6,-29 -24,-19 -11,-19 -57,-29 -50,-10 -321,24 -326,-14 -195,-80 -131,-94 -256,-257 -26,-34 -18,-50 -55,-90 -38,-42 -52,-28 -58,-101 47,1 39,-2 56,16l31 57c7,13 23,49 30,58 11,13 0,9 22,18 62,23 78,-107 78,-164l44 29c31,0 21,7 21,-29 -14,-48 -42,-90 -106,-71 -72,21 2,60 -31,129 -91,-24 -44,-156 -202,-72 0,94 70,167 124,237l57 73c48,57 56,105 108,124l0 43c-67,0 -126,-6 -143,90 -8,42 1,67 16,94 22,39 34,39 69,62l-272 379c-20,30 -31,46 -52,78 -40,59 -73,109 -110,165l-101 0 3 -1284c9,-36 12,-11 26,-61 -19,-70 -30,-18 -30,-130 1,-53 1,-106 1,-159 -47,12 -27,2 -58,43z"/>
   <path class="fil2" d="M9022 896l15 0 0 203 -15 0 0 -203zm0 -115l15 0 0 43 -15 0 0 -43zm-1489 1475c0,-24 -3,-12 18,-10 27,2 14,-1 29,10 33,16 58,6 83,-29l-173 0 251 -400c33,-37 100,-63 168,-63 -12,25 -29,161 -30,202 -1,88 24,129 30,203l29 -275 86 -17 29 191 0 -319c226,53 146,36 313,310 31,52 51,88 78,139 -137,0 -219,-14 -347,-15 -85,0 -108,13 -173,15 -60,3 -128,0 -189,0 41,55 182,23 319,28 64,3 77,16 158,15 63,0 126,0 188,0 8,33 12,33 15,72l-680 0 0 44 648 -3c99,-17 131,-41 104,75l-766 29c124,0 767,15 834,-5 70,-20 79,-166 122,-297 77,-238 118,-93 258,-161 19,36 27,67 44,102 60,-41 28,-26 58,-87 -107,-123 -48,-73 -68,-238 -6,-43 -5,-80 -5,-124 1,-176 -14,-299 -14,-477 34,-8 43,-13 87,-14l0 72c34,-8 72,-15 101,-29l29 433c5,291 33,374 -87,377 38,143 189,-101 298,63 36,54 115,264 121,342 -125,0 -250,0 -376,0 -141,0 -226,14 -361,14 36,49 48,29 202,29l580 1c74,0 56,10 85,-30l-86 -17c-37,-151 -146,-360 -159,-417l-188 0c22,-47 -1,-301 0,-405 0,-93 -15,-119 -15,-202 -1,-364 -70,-139 -101,-231 64,-2 45,-10 101,-15l-101 -29 -40 -423c-4,-24 -4,-39 -9,-63l-23 -63c-21,87 -56,478 -15,564 -62,5 -26,-2 -72,29l-1 304c5,114 16,83 15,303 0,91 9,133 15,202 -67,16 -128,7 -195,22 -64,15 -35,-5 -67,35 -22,27 -20,51 -23,65 -13,53 -31,124 -46,170 -19,60 -31,125 -74,157 -31,-66 -34,-123 -116,-145 33,-44 -9,-23 58,-29 -4,-48 -12,-60 -34,-95l-96 -165c-50,-88 -86,-183 -164,-226 -53,-30 -53,-9 -101,-29 -56,-23 -16,-31 -82,-49 -29,60 9,105 15,174 -116,2 -102,79 -102,-203l-29 0c0,179 -63,-1 -199,206 -21,32 -36,54 -58,86l-164 258c-22,52 -7,56 60,58z"/>
   <path class="fil3" d="M6058 2415c100,0 173,14 289,14l-491 15c6,-77 41,-158 43,-246 47,34 21,20 38,92 10,47 19,59 20,110l116 -188c0,91 -15,130 -15,203zm694 -44l0 44 101 14c-26,0 -43,1 -69,3l-191 -3c-55,0 -5,-4 -43,15l58 -232c16,69 43,125 43,203l29 0c16,-70 42,-105 58,-174l29 0c0,34 -2,47 -6,75l-9 55zm-506 -332c0,92 15,119 15,202l-30 -160c9,-73 -2,-15 15,-42zm174 115l5 -67c19,-47 11,-19 24,-34l0 174c-22,-26 -29,-24 -29,-73zm-145 -448l159 0c0,139 38,131 -9,137 -4,0 -114,-7 -135,-7 -46,-86 -17,-31 -15,-130zm116 -116l31 101c-62,-13 -70,-14 -147,-14 27,-40 63,-73 116,-87zm-549 405c40,33 -56,23 57,29l232 0 72 0 3 156c0,0 13,70 18,84 17,55 17,14 22,78l29 0c0,-108 17,-237 -29,-303 -21,-90 -26,-83 15,-159l155 7c5,0 7,-27 27,13 60,113 -111,128 -39,298 39,92 41,78 73,86l0 -245 347 0 0 58c55,-5 79,-33 116,-58 -23,-35 -17,-15 -29,-58 81,-54 120,-122 172,-175 2,-2 5,-5 8,-7l37 -35c14,52 54,91 85,132 49,66 77,84 89,128l-232 29c163,0 264,-27 276,43 9,55 -1,249 -1,319l-87 0c-7,-87 -13,-179 -58,-246 -54,29 -33,-4 -60,55 -17,35 -17,50 -29,101 -23,94 -78,67 -156,61 0,-105 -27,-172 -29,-261l-29 261 -116 0c0,-69 9,-126 -14,-174 -82,22 -38,43 -102,116 -26,-113 -33,-145 -86,-159 -32,66 -4,143 -58,246 -72,-2 -42,-15 -203,-15 -77,0 -154,0 -231,0 0,-125 44,-164 -29,-217 -41,28 -72,62 -72,130l-15 0c0,-39 -12,-54 -22,-93 -16,-58 0,-60 -64,-66 -2,61 -19,100 -30,158 -14,74 -5,110 -86,117l-58 -289c-83,22 -14,78 -14,275 -105,0 -145,14 -246,14l0 29c197,0 1281,21 1447,-15 33,-7 26,-3 40,-5 63,-7 15,-11 75,-22 46,-8 59,-6 101,-16 9,-39 19,-69 34,-110 17,-43 20,-69 52,-92 6,69 29,157 29,231l-200 2c-4,1 -8,2 -12,3l472 23c147,-16 108,-11 131,-42 -114,0 -157,32 -159,-73l173 0c-31,-47 -46,-31 -54,-86 -15,-11 -2,-8 -29,-10 -21,-2 -18,-14 -18,10 23,34 17,15 29,57 -73,0 -74,10 -130,15 0,76 15,69 -29,101 -50,-37 -30,-102 -29,-246 1,-234 -97,-196 -194,-370 -54,-99 -17,-119 -8,-223 -99,27 6,63 -134,228 -60,71 -135,117 -185,192l-376 0c0,-133 -18,-340 -67,-453 -23,-53 -34,-65 -48,-126 -83,60 108,68 -116,217 0,340 -30,193 -43,347 -188,0 -80,-30 -249,-3 -36,6 -75,3 -112,3z"/>
   <path class="fil4" d="M1027 2400c33,0 37,-4 57,-14 2,-73 28,-116 29,-188 43,49 131,164 145,217l-231 -15zm-868 -130l0 -535 289 0 0 636c-183,0 -128,5 -150,-95 -15,-68 -23,-44 -23,-136l-44 0c-12,46 -9,24 -33,68l-39 62zm839 -188l0 -347 260 0 0 578c-52,-18 -58,-79 -100,-131 -35,-43 6,-22 -59,-28 -6,72 -23,200 -87,217 -19,-46 -6,-4 -2,-58 3,-28 4,-57 1,-86 -7,-55 -9,-5 -8,-67 2,-54 -5,-24 -5,-78zm-506 145l-15 -492c10,11 10,4 19,24 60,128 -4,393 -4,468zm0 -550c0,-41 -7,-39 14,-58l130 -86c195,103 124,53 304,173l0 665c-148,0 -163,-33 -173,-131 -16,-157 -110,-98 -160,117 -51,12 -47,14 -115,14 35,-74 57,-426 57,-549 0,-77 -57,-103 -57,-145zm997 593l0 -1009c-33,61 -14,1007 -14,1154 -104,0 -81,21 -174,0l-14 -376c0,-279 27,-284 29,-362 -23,1 -291,27 -333,15l-318 -203c-57,16 -23,14 -65,37 -59,33 -140,27 -152,166l-289 0 -43 -58c-15,54 -28,42 -58,87 33,7 33,11 72,14l0 651c72,-26 41,-65 97,-164 10,-18 10,-14 19,-24 62,267 -17,169 255,208 67,10 122,-5 144,-69 30,-89 27,-136 92,-154 0,230 55,217 203,217 -36,49 -49,29 -203,29l-737 15c172,0 290,14 463,14l914 -7c119,17 304,-22 445,-22l-289 -14c-37,-69 -16,-72 -44,-145z"/>
   <path class="fil5" d="M4887 1590c49,36 32,48 58,102l-130 0c29,-55 20,-67 72,-102zm-43 -43c-183,0 -152,9 -203,-87 25,-37 36,-62 58,-101 251,-436 191,-308 390,-202l-245 390zm-485 -463c0,36 10,29 -21,29 26,20 238,313 253,386 14,72 -68,48 -145,48 5,38 276,4 326,14 46,10 33,10 57,29 -4,23 4,8 -6,29 -14,25 -9,16 -23,31 0,59 7,47 -14,95l-42 -7c80,18 29,9 50,26 -39,24 -33,19 -95,21l4 37c166,-4 100,-114 295,221l109 181c31,49 82,135 84,205l-203 29 420 0 -72 -44c97,-202 -123,-350 233,-341 12,0 62,-5 99,-5 75,-1 56,12 87,-29 -141,0 -223,-15 -362,-15 19,-72 140,-173 159,-246 29,20 146,159 159,217l-101 29 521 0 -232 0c-113,-6 -17,4 -57,-29 -57,-25 -113,-39 -154,-92 -54,-68 -82,-105 -95,-196 -9,-63 3,-73 3,-160l-29 0c-3,99 -39,248 -84,307 -26,34 -73,62 -91,97 -18,35 -5,43 -16,85 -10,32 -20,29 -41,61 -15,50 3,293 -35,314 -60,33 -119,-101 -158,-179 -24,-50 -38,-66 -62,-111 -45,-85 -172,-277 -179,-357 36,-12 10,1 26,-25 0,-1 2,-5 3,-7 15,-23 26,-28 44,-55 -18,-78 -37,-102 -87,-115 7,-82 212,-324 231,-405 -44,-67 -133,-112 -202,-145 -83,44 -96,80 -162,185l-127 220c-80,-43 -82,-97 -151,-181 -56,-67 -51,-87 -117,-152z"/>
   <path class="fil6" d="M2299 1865l0 -14 -26 -32c-71,48 -73,91 -98,182 -17,57 -26,128 -54,178l-24 33 -62 -242c-23,-43 -4,-34 -54,-47 -37,159 -72,224 -72,448 -115,0 -212,-7 -304,-29l-2 -100c-3,-156 9,-88 31,-232 8,-56 17,-67 29,-116 42,31 31,36 53,91l120 328c59,-43 12,-24 40,-205 17,-106 -11,-590 -11,-720l622 0 -1 205c5,89 -3,30 15,41 22,-14 10,-19 7,-72 0,-10 -1,-49 1,-57 9,-41 -19,-9 21,-31 2,-67 17,-76 44,-115l-694 0 -37 -35c-2,-2 -4,-6 -7,-8 0,316 15,591 15,896l-15 0c0,-44 -96,-319 -173,-376 -45,33 -36,33 -45,100l-42 276c-9,56 -14,76 -14,145 115,61 193,43 361,43 50,-94 17,-86 30,-201 8,-68 28,-119 28,-204 55,15 31,-18 72,175l44 172 55 -46 104 -431 43 0z"/>
  </g>
 </g>
</svg>
