<?xml version="1.0" encoding="UTF-8"?>
<svg id="uuid-76149ac8-2113-400e-85ac-cb919978f7dd" data-name="Capa 2" xmlns="http://www.w3.org/2000/svg" viewBox="0 0 269.04 329.21">
  <g id="uuid-830e8e97-62b1-492e-98f7-6b8d1e33a53e" data-name="Capa 1">
    <g id="uuid-adae43f6-cfde-4265-ace1-704125f68aaf" data-name="Grupo 3024">
      <path id="uuid-97a21431-40ee-49c5-95b6-0597842414a1" data-name="Trazado 5193" d="m122.71,110.31l-14.23,25.01,22.97-3.41-8.74-21.6Z" style="fill: #2b6043; stroke-width: 0px;"/>
      <path id="uuid-dd6423bc-8cbf-4522-b8a9-91c99db47940" data-name="Trazado 5194" d="m136.95,85.31l-14.23,25.01,22.96-3.41-8.74-21.6Z" style="fill: #5fa873; stroke-width: 0px;"/>
      <path id="uuid-b1d99865-45f8-420f-9cc0-1065d68a2154" data-name="Trazado 5195" d="m151.19,60.34l-14.23,25.01,22.96-3.41-8.74-21.6Z" style="fill: #8add99; stroke-width: 0px;"/>
      <path id="uuid-0c8c2033-c245-4925-a912-04cba71e6725" data-name="Trazado 5196" d="m37.89,114.61l-13.41-25.45,22.85,4.14-9.44,21.31Z" style="fill: #8add99; stroke-width: 0px;"/>
      <path id="uuid-c1b3379c-640d-4a84-8263-f4b376978dad" data-name="Trazado 5197" d="m51.31,140.06l-13.41-25.46,22.84,4.15-9.43,21.32Z" style="fill: #5fa873; stroke-width: 0px;"/>
      <path id="uuid-1564c9be-6c93-40fa-85b3-c044bb0ce3b6" data-name="Trazado 5198" d="m14.76,263.52l13.4-25.46,9.5,21.18-22.9,4.28Z" style="fill: #5fa873; stroke-width: 0px;"/>
      <path id="uuid-6d928917-54e0-4112-8137-b0e3a14328d3" data-name="Trazado 5199" d="m1.22,288.91l13.54-25.38,9.38,21.23-22.93,4.15Z" style="fill: #2b6043; stroke-width: 0px;"/>
      <path id="uuid-0a96b480-9ac3-4ef6-99d3-34d2f3b6b59e" data-name="Trazado 5200" d="m9.4,202.13c3.92,1.3,8.14,1.33,12.07.09,2.45-.85,4.64-2.33,6.33-4.3,1.12-1.3,2.04-2.76,2.74-4.33.28-.61.52-1.24.71-1.88-3.12.16-6.21.67-9.22,1.51-2.5.71-4.88,1.78-7.07,3.19-1.6,1.04-3.04,2.32-4.25,3.79-.51.6-.95,1.26-1.33,1.95" style="fill: #5fa873; stroke-width: 0px;"/>
      <path id="uuid-22a96a49-203c-4da4-a431-283e54b70b8c" data-name="Trazado 5201" d="m7.25,204.31c-.7.37-1.37.81-1.99,1.31-1.52,1.17-2.79,2.64-3.72,4.33-1.38,2.6-1.85,5.57-1.35,8.47.97,5.05,3.44,9.69,7.09,13.31.63-.34,1.19-.79,1.67-1.32,1.18-1.29,1.99-2.87,2.34-4.58.27-1.21.39-2.46.35-3.7-.03-1.59-.22-3.18-.55-4.74-1-4.44-2.29-8.81-3.85-13.08" style="fill: #5fa873; stroke-width: 0px;"/>
      <path id="uuid-2e201d44-d674-43fb-9212-2ee7ba917a7c" data-name="Trazado 5202" d="m20.27,210.61c3.95.29,7.89-.62,11.31-2.63,2.12-1.31,3.85-3.16,5.02-5.35.77-1.45,1.32-3.01,1.63-4.63.13-.63.22-1.27.25-1.91-2.96.76-5.81,1.88-8.48,3.35-2.18,1.2-4.16,2.73-5.86,4.54-1.25,1.34-2.29,2.86-3.08,4.51-.33.68-.59,1.39-.78,2.13" style="fill: #5fa873; stroke-width: 0px;"/>
      <path id="uuid-72f3fcde-02c2-4e76-aab8-4e40188c521f" data-name="Trazado 5203" d="m18.77,213.13c-.56.51-1.08,1.07-1.54,1.67-1.14,1.44-1.97,3.1-2.45,4.88-.68,2.72-.45,5.58.66,8.15,1.98,4.4,5.21,8.12,9.29,10.7.5-.46.93-1,1.26-1.59.81-1.45,1.23-3.1,1.2-4.76-.1-2.71-.76-5.37-1.96-7.8-1.88-3.9-4.04-7.66-6.46-11.26" style="fill: #5fa873; stroke-width: 0px;"/>
      <path id="uuid-2a9d6d57-b626-4752-9902-2430df53f11b" data-name="Trazado 5204" d="m32.88,216.26c3.74-.6,7.21-2.32,9.97-4.92,1.7-1.67,2.92-3.75,3.55-6.05.41-1.52.58-3.08.52-4.65-.01-.62-.07-1.23-.18-1.84-4.86,2.26-8.94,5.89-11.76,10.44-.86,1.51-1.48,3.15-1.84,4.86-.15.71-.23,1.43-.24,2.15" style="fill: #5fa873; stroke-width: 0px;"/>
      <path id="uuid-858348ab-5604-484d-bc0a-8d2eaf1cc94c" data-name="Trazado 5205" d="m32.06,218.93c-.42.59-.77,1.23-1.06,1.89-.73,1.6-1.13,3.32-1.17,5.08-.03,2.66.8,5.26,2.36,7.41,2.77,3.63,6.54,6.38,10.84,7.91.37-.53.65-1.13.83-1.75.44-1.53.48-3.14.1-4.69-.66-2.5-1.85-4.82-3.47-6.83-2.57-3.22-5.39-6.23-8.42-9.02" style="fill: #5fa873; stroke-width: 0px;"/>
      <path id="uuid-d60be884-ea7f-4ccb-98f4-ed0eea44ab73" data-name="Trazado 5206" d="m55.59,199.56c-2.24,1.76-4.2,3.84-5.82,6.19-1.31,1.86-2.3,3.92-2.93,6.11-.46,1.59-.67,3.25-.62,4.91.02.69.1,1.37.26,2.04,3.33-1.4,6.17-3.76,8.15-6.78,1.22-1.92,1.92-4.11,2.05-6.38.07-1.49-.09-2.99-.49-4.43-.15-.57-.34-1.12-.58-1.66" style="fill: #5fa873; stroke-width: 0px;"/>
      <path id="uuid-052a9b45-a2a2-4c24-85bc-93fafe1eb92c" data-name="Trazado 5207" d="m46.31,221.46c-.25.64-.43,1.31-.55,1.99-.32,1.64-.3,3.33.04,4.96.57,2.46,1.92,4.67,3.83,6.31,3.33,2.71,7.35,4.43,11.61,4.96.21-.58.33-1.18.35-1.79.07-1.51-.24-3.01-.9-4.37-1.11-2.18-2.68-4.08-4.61-5.59-3.09-2.41-6.36-4.57-9.78-6.47" style="fill: #5fa873; stroke-width: 0px;"/>
      <path id="uuid-5bab1021-7415-441f-a41b-84f1e6164409" data-name="Trazado 5208" d="m66.21,198.18c-2.28,1.96-4.14,4.36-5.46,7.06-.94,1.97-1.49,4.11-1.62,6.3-.09,1.58.08,3.16.49,4.68.17.63.39,1.24.68,1.82,2.8-2.07,5.05-4.79,6.54-7.94.94-1.99,1.36-4.18,1.24-6.38-.09-1.42-.44-2.81-1.04-4.1-.23-.52-.51-1-.85-1.46" style="fill: #5fa873; stroke-width: 0px;"/>
      <path id="uuid-11240685-a9c2-47fd-aefa-ef9220b353ed" data-name="Trazado 5209" d="m60.73,220.54c-.09.65-.11,1.3-.07,1.96.07,1.58.45,3.13,1.12,4.57,1.02,2.12,2.66,3.89,4.69,5.08,3.24,1.83,6.89,2.84,10.61,2.93.09-.57.1-1.15.03-1.72-.16-1.42-.65-2.79-1.42-3.99-1.25-1.9-2.92-3.49-4.89-4.63-3.17-1.82-6.56-3.23-10.08-4.21" style="fill: #5fa873; stroke-width: 0px;"/>
      <path id="uuid-bd04d7b2-d3ff-4d4e-86e7-1af481528c80" data-name="Trazado 5210" d="m78.69,195.18c-2.43,1.98-4.36,4.51-5.64,7.37-.83,1.95-1.2,4.07-1.06,6.19.12,2.12.78,4.17,1.93,5.96,2.42-2.33,4.36-5.11,5.71-8.18.85-1.94,1.22-4.05,1.09-6.16-.1-1.9-.81-3.71-2.02-5.18" style="fill: #5fa873; stroke-width: 0px;"/>
      <path id="uuid-623be0e8-5932-4bcd-b099-9c5cd91f0262" data-name="Trazado 5211" d="m74.63,216.98c.05,2.12.67,4.2,1.81,5.99,1.17,1.83,2.8,3.33,4.73,4.33,2.88,1.44,6.04,2.24,9.26,2.36.06-1.9-.48-3.77-1.55-5.34-1.17-1.76-2.75-3.2-4.61-4.22-3-1.59-6.25-2.65-9.61-3.13" style="fill: #5fa873; stroke-width: 0px;"/>
      <path id="uuid-f547cd52-605a-4bcc-a95d-096b3b984c5b" data-name="Trazado 5212" d="m93.03,191.74c-.81.56-1.6,1.17-2.35,1.82-.62.56-1.21,1.15-1.77,1.77-.91,1.04-1.69,2.19-2.3,3.43-.9,1.84-1.3,3.88-1.17,5.92.13,2,.8,3.93,1.93,5.58,2.29-2.26,4.21-4.87,5.7-7.72.96-1.79,1.5-3.78,1.57-5.81.09-1.8-.49-3.58-1.61-4.99" style="fill: #5fa873; stroke-width: 0px;"/>
      <path id="uuid-7648dd1d-83bc-4d30-976e-bb81fba77b7e" data-name="Trazado 5213" d="m88.08,212.42c.1,2,.73,3.94,1.82,5.62,1.08,1.69,2.55,3.1,4.28,4.12,1.09.66,2.25,1.2,3.46,1.62.68.25,1.38.46,2.08.63.71.19,1.46.38,2.25.52.09-1.78-.31-3.55-1.16-5.12-.92-1.72-2.26-3.19-3.9-4.25-2.68-1.66-5.69-2.73-8.81-3.13" style="fill: #5fa873; stroke-width: 0px;"/>
      <path id="uuid-388f7d5f-36bc-48dc-b984-00b32aaca358" data-name="Trazado 5214" d="m109.23,189.73c-2.98,1.2-5.58,3.19-7.51,5.76-1.15,1.59-1.81,3.49-1.9,5.45-.05,1.33.16,2.65.6,3.9.18.52.4,1.02.68,1.5,5.85-4.89,8.33-8.71,8.86-11.74.25-1.18.2-2.39-.14-3.55-.13-.47-.33-.92-.6-1.33" style="fill: #5fa873; stroke-width: 0px;"/>
      <path id="uuid-337d384a-d9a2-4f72-ae3a-f709340ad4a1" data-name="Trazado 5215" d="m101.58,208.41c-.04.55-.02,1.09.05,1.64.16,1.32.54,2.6,1.12,3.79.82,1.66,1.97,3.13,3.38,4.34,1.88,1.56,4,2.81,6.27,3.71.1-.47.15-.94.16-1.42.04-1.19-.11-2.38-.46-3.52-.88-2.75-3.28-6.57-10.53-8.55" style="fill: #5fa873; stroke-width: 0px;"/>
      <path id="uuid-6252da7a-a508-433b-b6ae-54f9a25406c7" data-name="Trazado 5216" d="m126.81,191.17c-1.82.23-3.61.72-5.3,1.44-1.24.52-2.39,1.24-3.4,2.13-1.44,1.2-2.46,2.82-2.92,4.63-.3,1.21-.36,2.47-.17,3.7.07.51.19,1.01.35,1.5,6.31-3.4,9.69-6.15,10.95-8.77.54-.99.8-2.11.76-3.24-.01-.47-.1-.92-.27-1.36" style="fill: #5fa873; stroke-width: 0px;"/>
      <path id="uuid-4083d352-210e-4888-b7a0-e94da4c7f8c6" data-name="Trazado 5217" d="m115.41,206.53c-.13.49-.22,1-.25,1.51-.09,1.24.02,2.48.33,3.68.44,1.65,1.16,3.21,2.13,4.61.59.83,1.22,1.62,1.9,2.37.76.81,1.56,1.59,2.4,2.32.18-.4.32-.81.44-1.23.31-1.07.47-2.18.46-3.3-.04-1.68-.52-3.32-1.39-4.76-.62-.99-1.37-1.89-2.23-2.67-.53-.47-1.09-.9-1.68-1.29-.67-.47-1.39-.88-2.13-1.23" style="fill: #5fa873; stroke-width: 0px;"/>
      <path id="uuid-6005c809-b76e-44d9-8db7-39da5bf04aa5" data-name="Trazado 5218" d="m116.45,205.97c1.1,0,1.12-.58,0-.62-4.91.03-9.79.61-14.57,1.73-4.69,1.08-9.33,2.41-13.88,3.98-9.07,3.41-18.39,6.11-27.87,8.08-19.41,3.32-39.2-3.21-52.82-17.42-1.84-1.93-3.55-3.98-5.1-6.15-1.57-2.15-1.13.43,2.01,4.14,6.35,7.53,14.49,13.34,23.66,16.9,9.16,3.58,19.05,4.87,28.82,3.76,9.62-1.51,19.05-4.04,28.14-7.54,5.07-1.72,10.15-3.42,15.33-4.68,5.33-1.3,10.78-2.03,16.26-2.18" style="fill: #5fa873; stroke-width: 0px;"/>
      <path id="uuid-e8816472-4cfd-43e2-9d77-6d00a6f752e1" data-name="Trazado 5219" d="m118.23,205.83c2.57,1.25,5.22,2.33,7.94,3.23,1.79.6,3.64,1,5.52,1.19.71.08,1.42.11,2.13.09.54.02,1.09,0,1.63-.06.5-.04.99-.13,1.47-.25-1.55-2.47-3.82-4.39-6.5-5.52-2.05-.82-4.27-1.12-6.46-.88-1.48.17-2.92.6-4.25,1.27-.38.19-.75.4-1.09.65-.24.17-.35.28-.35.28" style="fill: #5fa873; stroke-width: 0px;"/>
      <path id="uuid-7a05c02d-b03a-4e06-b304-d27a525bb443" data-name="Trazado 5220" d="m85.74,148.69c-3.1-1.25-4.59-4.78-3.34-7.87,1.25-3.1,4.78-4.59,7.87-3.34,3.1,1.25,4.59,4.78,3.34,7.87-1.25,3.1-4.78,4.59-7.87,3.34,0,0,0,0,0,0" style="fill: #ffd600; stroke-width: 0px;"/>
      <path id="uuid-25d99474-8cad-49f0-abb0-37c1f6b16cae" data-name="Trazado 5221" d="m81.4,131.53c2.45.16,4.56-1.69,4.72-4.13.16-2.45-1.69-4.56-4.13-4.72-2.45-.16-4.56,1.69-4.72,4.13,0,0,0,0,0,0-.16,2.44,1.69,4.56,4.13,4.72" style="fill: #d51616; stroke-width: 0px;"/>
      <path id="uuid-06bc3637-35c1-4146-95c5-d6ece68c5efe" data-name="Trazado 5222" d="m143.2,196.3c0,2.47-2,4.47-4.47,4.47-2.47,0-4.47-2-4.47-4.47,0-2.47,2-4.47,4.47-4.47s4.47,2,4.47,4.47h0" style="fill: #ffd600; stroke-width: 0px;"/>
      <path id="uuid-6e719950-f8b8-47de-88f9-81ade4708760" data-name="Trazado 5223" d="m54.75,108c0,2.19-1.78,3.98-3.97,3.98-2.19,0-3.98-1.78-3.98-3.97,0-2.19,1.78-3.98,3.97-3.98h0c2.19,0,3.97,1.78,3.97,3.97h0" style="fill: #ffd600; stroke-width: 0px;"/>
      <path id="uuid-f69a73f3-1981-42bc-896f-3c412d760c7f" data-name="Trazado 5224" d="m103.54,73c0,2.47-2,4.47-4.47,4.47s-4.47-2-4.47-4.47c0-2.47,2-4.47,4.47-4.47s4.47,2,4.47,4.47h0" style="fill: #821e46; stroke-width: 0px;"/>
      <path id="uuid-aa906cc1-b75a-4093-b9c2-c37757745d4d" data-name="Trazado 5225" d="m157.55,210.05c-.21,3.14-.38,6.29-.48,9.43-.32,3.32.1,6.66,1.22,9.8.33.74.93,1.56,1.72,1.45.55-.16,1-.54,1.23-1.06.87-1.56,1.56-3.22,2.06-4.93l12.27-37.07c3.46,10.73,3.05,22.33-1.15,32.79-2.08,5.12-5.94,12.76-11.11,14.51,2.48,4.61,5.46,6.66,8.64,11.7,7.58-7.73,17.63-12.54,28.4-13.59,5.04-.84,10.21-.44,15.06,1.16,6.54,2.77,11.72,8.02,14.4,14.6,2.63,6.56,3.9,13.59,3.7,20.66,3.36-3.44,6.08-7.45,8.05-11.83.5,4.91-.4,9.86-2.59,14.29-2.06,4.41-6.07,7.61-10.83,8.64-1.42,3.74-3.39,7.24-5.83,10.41l4.69,10.49c-2.11,0-4.2.25-6.25.75l1.73-2.79c.13-.18.22-.39.26-.6,0-.28-.06-.56-.2-.8l-3.02-6.52c-.54-.82-.59-1.87-.14-2.75,1.13-3.01,2.25-6.03,3.63-9.13-1.38-.57-2.97-.33-4.12.63-1.12.96-2.06,2.12-2.77,3.42l-3.76,6.03c-.24.32-.39.7-.42,1.11.02.26.1.51.21.74l4.86,11.24c-2.39.55-4.68,1.5-6.76,2.8-.47-1.21-.36-2.57.3-3.69.66-1.09,1.48-2.07,2.45-2.91-1.33-2.96-2.95-5.77-4.84-8.41-.3-.34-.49-.77-.54-1.22.03-.36.16-.71.37-1.01,2.2-3.8,4.39-7.59,6.3-11.38-.62-3.96-2.76-7.52-5.97-9.93-4.01-2.3-8.9-2.45-13.05-.4-3.99,2.13-7.7,4.75-11.03,7.8l13.17,14.22c.23.2.38.46.44.76,0,.21-.06.42-.16.61l-6.68,15.29c-.11.39-.38.72-.74.92-.3.07-.61.05-.89-.07l-4.74-1.38c-.52-.15-1.16-.47-1.11-1.02.07-.76,1.17-.66,1.92-.64,2.23.07,3.59-2.41,4.42-4.51l3.36-8.54c-3.78-5-8.55-9.16-14.01-12.24-1.73,1.16-3.3,2.55-4.67,4.12l9.87,9.74c.56.34.73,1.08.39,1.63-.02.04-.05.08-.08.11l-6.56,12.99-6.38-1.65c.18-.51.42-1,.71-1.46,1.22.25,2.49-.2,3.28-1.16.77-.97,1.36-2.06,1.74-3.24l1.29-3.28c.87-1.3.52-3.06-.78-3.93,0,0-.01,0-.02-.01-8.06-7.77-15.57-16.09-22.48-24.9-2.34,1.96-4.23,4.39-5.55,7.14-4.55-7.36-7.07-15.79-7.32-24.43-.48-4.59.82-9.19,3.63-12.85,2.02-2.19,4.91-3.36,7.88-3.19-3.7-5.13-5.55-11.37-5.23-17.68.78-6.43,2.36-12.74,4.69-18.79.89-2.57,5.07-12.54,5.67-6.58.15,1.42-1.66,18.26-1.75,19.64" style="fill: #d51616; stroke-width: 0px;"/>
      <path id="uuid-6649dada-1b19-4309-8e20-7becc4564118" data-name="Trazado 5226" d="m154.23,250.63c-1.38,0-2.5-1.12-2.5-2.51,0-1.38,1.12-2.5,2.51-2.5,1.38,0,2.5,1.12,2.5,2.5,0,1.38-1.12,2.5-2.51,2.5" style="fill: #ffd600; stroke-width: 0px;"/>
      <path id="uuid-fd73310c-83bc-4911-948f-120f8ddb5ad9" data-name="Trazado 5227" d="m268.37,262.07c.31-1.38.51-2.78.6-4.19.09-1.22.09-2.45,0-3.68-.16-2.01-.63-3.99-1.39-5.86-1.12-2.7-3.05-4.98-5.51-6.54-1.71-1.05-3.58-1.8-5.54-2.21-.8-.18-1.61-.3-2.42-.35.52,2.41,1.13,4.67,1.65,6.67.28,1.01.59,1.98.88,2.88.29.9.58,1.74.9,2.54.97,2.65,2.44,5.08,4.31,7.19,1.22,1.33,2.73,2.37,4.41,3.05.68.28,1.4.45,2.13.52" style="fill: #ffd600; stroke-width: 0px;"/>
      <path id="uuid-50198e34-027e-402e-a242-2957bc99a029" data-name="Trazado 5228" d="m251.06,238.22c-.7-.43-1.44-.81-2.2-1.11-1.84-.75-3.76-1.28-5.73-1.58-5.48-.81-11.06-.4-16.36,1.19.52.47,1.06.91,1.62,1.32,1.43,1.07,2.98,1.98,4.61,2.7,2.38,1.07,4.98,1.58,7.59,1.49.8-.03,1.61-.12,2.4-.26.86-.17,1.71-.41,2.53-.71,1.99-.72,3.86-1.75,5.52-3.05" style="fill: #ffd600; stroke-width: 0px;"/>
      <path id="uuid-7839991f-c63f-43d4-939d-3676233eac18" data-name="Trazado 5229" d="m249.02,249.99c0,1.18.05,2.34.09,3.44s.07,2.13.16,3.11c.13,1.8.36,3.59.69,5.36.29,1.45.69,2.87,1.2,4.25.42,1.12.97,2.2,1.62,3.21.93,1.46,2.16,2.71,3.62,3.64.58.38,1.22.68,1.88.88,1.79-3.97,2.33-8.4,1.55-12.68-.57-2.71-1.92-5.2-3.9-7.14-1.38-1.33-2.96-2.42-4.7-3.22-.71-.34-1.45-.63-2.21-.86" style="fill: #ffd600; stroke-width: 0px;"/>
      <path id="uuid-d6fc48ba-2093-4514-b795-90ad2ba3c3d6" data-name="Trazado 5230" d="m246.39,248.39c-.56-.55-1.16-1.05-1.8-1.5-1.56-1.1-3.25-2-5.03-2.69-5.08-1.91-10.56-2.47-15.92-1.61.4.54.82,1.06,1.28,1.55,1.15,1.27,2.46,2.4,3.88,3.36.96.64,1.98,1.19,3.04,1.63,1.25.52,2.56.88,3.9,1.06,1.61.23,3.25.23,4.86-.02.95-.15,1.88-.35,2.8-.62,1.02-.33,2.03-.72,3-1.18" style="fill: #ffd600; stroke-width: 0px;"/>
      <path id="uuid-167236dc-3a25-43b2-a617-9f023d80b5e2" data-name="Trazado 5231" d="m241.86,259.4c-.35,2.28-.75,4.25-.92,6.18-.2,1.7-.29,3.42-.26,5.14-.02,2.56.46,5.1,1.42,7.47.63,1.53,1.58,2.91,2.79,4.04.48.46,1.02.84,1.61,1.15,1.25-1.94,2.2-4.06,2.84-6.27.5-1.7.72-3.47.66-5.25-.07-2.63-.91-5.18-2.42-7.35-1.05-1.5-2.34-2.82-3.81-3.9-.6-.45-1.24-.86-1.9-1.21" style="fill: #ffd600; stroke-width: 0px;"/>
      <path id="uuid-cf0378a5-f8b7-4051-a47e-14ed416b7f51" data-name="Trazado 5232" d="m239.7,257.43c-.42-.62-.9-1.21-1.42-1.75-1.25-1.32-2.67-2.47-4.21-3.44-2.05-1.28-4.28-2.28-6.6-2.96-1.3-.37-2.63-.66-3.96-.85-.71-.11-1.42-.18-2.11-.22s-1.46-.11-2.2-.1c.28.58.59,1.14.94,1.68.87,1.39,1.9,2.67,3.08,3.81,1.73,1.68,3.82,2.94,6.11,3.7,1.49.48,3.04.75,4.61.8,1.95.05,3.9-.18,5.78-.68" style="fill: #ffd600; stroke-width: 0px;"/>
      <path id="uuid-7807d0e4-249c-4da2-b65b-3a792d7f5f36" data-name="Trazado 5233" d="m233.11,267.32c-.77,2.02-1.44,3.9-1.93,5.62-.48,1.56-.83,3.15-1.06,4.76-.41,2.39-.33,4.84.23,7.2.38,1.53,1.06,2.97,2.02,4.23.38.5.82.96,1.32,1.34.72-.86,1.39-1.76,2.01-2.69.53-.84,1-1.71,1.42-2.61.37-.79.68-1.6.93-2.43.23-.76.4-1.54.51-2.33.38-2.48.03-5.01-1-7.29-.72-1.59-1.7-3.05-2.89-4.33-.48-.53-1.01-1.02-1.57-1.47" style="fill: #ffd600; stroke-width: 0px;"/>
      <path id="uuid-72362732-6abc-4982-9400-8a92b7a99e30" data-name="Trazado 5234" d="m231.43,265.09c-.29-.66-.63-1.29-1.02-1.89-.94-1.46-2.06-2.8-3.34-3.97-1.71-1.57-3.62-2.89-5.7-3.92-.56-.28-1.14-.54-1.73-.77s-1.27-.47-1.93-.66-1.33-.35-2.04-.49c-.73-.16-1.46-.28-2.21-.35.16.59.36,1.18.6,1.74.59,1.45,1.37,2.81,2.32,4.06,1.41,1.84,3.2,3.34,5.26,4.41,1.34.67,2.77,1.17,4.23,1.49,1.83.37,3.7.49,5.56.35" style="fill: #ffd600; stroke-width: 0px;"/>
      <path id="uuid-078ae8ba-bad3-4c81-a3f7-108857d2feb9" data-name="Trazado 5235" d="m220.66,295.27c6.43-6.08,6.7-11.82,5.7-15.6-.43-1.6-1.12-3.13-2.03-4.51-.37-.58-.78-1.13-1.24-1.64-4.23,7.04-5.39,12.32-4.86,16.08.17,1.49.64,2.94,1.37,4.25.29.53.65,1.01,1.06,1.45" style="fill: #ffd600; stroke-width: 0px;"/>
      <path id="uuid-8fc20c5a-92e6-4a81-a531-251aa6324017" data-name="Trazado 5236" d="m221.87,271.15c-.16-.66-.38-1.31-.65-1.93-.65-1.52-1.5-2.95-2.52-4.25-3.08-3.92-7.45-6.61-12.34-7.59.06.58.17,1.16.32,1.73.37,1.45.93,2.83,1.68,4.12,2.89,4.73,7.96,7.71,13.5,7.94" style="fill: #ffd600; stroke-width: 0px;"/>
      <path id="uuid-b33f215b-335d-46f0-b062-4a9036e033d0" data-name="Trazado 5237" d="m207.7,298.25c6.37-3.78,8.78-11.8,5.55-18.46-.27-.59-.59-1.16-.95-1.7-1.09,1.39-2.11,2.84-3.05,4.34-.75,1.24-1.41,2.53-1.96,3.86-.85,2-1.28,4.16-1.27,6.33.02,1.42.31,2.83.86,4.14.21.53.49,1.03.82,1.49" style="fill: #ffd600; stroke-width: 0px;"/>
      <path id="uuid-60d5944a-9274-4c9e-bdc3-bae8f370c842" data-name="Trazado 5238" d="m211.46,275.71c-.06-.64-.18-1.28-.35-1.91-.41-1.52-1.01-2.98-1.81-4.34-2.46-4.15-6.42-7.2-11.06-8.51-.02.55.02,1.11.1,1.66.47,3.52,2.21,6.74,4.91,9.05,1.04.9,2.19,1.67,3.42,2.29,1.52.78,3.13,1.36,4.8,1.74" style="fill: #ffd600; stroke-width: 0px;"/>
      <path id="uuid-feb8782f-e582-4973-82c0-b1bf611a31bc" data-name="Trazado 5239" d="m195.03,299.81c2.56-1.57,4.66-3.78,6.1-6.41.97-1.86,1.46-3.93,1.42-6.03-.03-1.49-.3-2.97-.78-4.38-.19-.58-.43-1.15-.71-1.7-2.17,2.11-4.01,4.55-5.45,7.22-.96,1.81-1.53,3.8-1.69,5.85-.17,1.88.21,3.78,1.1,5.45" style="fill: #ffd600; stroke-width: 0px;"/>
      <path id="uuid-49ed90d7-6ee3-4bbe-b74c-635a8986ab20" data-name="Trazado 5240" d="m200.52,278.95c0-.61-.04-1.23-.13-1.83-.51-3.5-2.15-6.73-4.66-9.22-1.85-1.79-4.06-3.18-6.48-4.07-.2,1.87.05,3.75.71,5.51.67,1.88,1.75,3.6,3.16,5.02,2.09,2.08,4.63,3.65,7.42,4.59" style="fill: #ffd600; stroke-width: 0px;"/>
      <path id="uuid-6f23dc47-efd7-4e0e-baf9-dbe52f0a12e4" data-name="Trazado 5241" d="m182.69,300.3c4.36-2.08,7.31-6.29,7.78-11.1.15-1.99-.15-3.98-.87-5.84-2.21,1.8-4.12,3.94-5.63,6.36-1.01,1.64-1.67,3.47-1.94,5.38-.27,1.76-.04,3.56.67,5.2" style="fill: #ffd600; stroke-width: 0px;"/>
      <path id="uuid-00cbd10d-8f77-4cf1-b330-b02bddbb3643" data-name="Trazado 5242" d="m189.28,281.12c.15-1.98-.11-3.98-.78-5.85-1.49-4.2-4.72-7.56-8.86-9.22-.33,1.74-.23,3.54.29,5.24.52,1.82,1.44,3.51,2.67,4.94,1.85,2.1,4.13,3.76,6.69,4.88" style="fill: #ffd600; stroke-width: 0px;"/>
      <path id="uuid-5e7fa876-c329-47cf-9ee0-24701f481339" data-name="Trazado 5243" d="m170.2,299.96c2.53-.97,4.71-2.65,6.3-4.84,1.04-1.52,1.71-3.26,1.96-5.08.26-1.85.11-3.74-.44-5.53-3.83,2.46-6.68,6.19-8.05,10.53-.29,1.16-.34,2.37-.15,3.55.07.47.2.94.39,1.38" style="fill: #ffd600; stroke-width: 0px;"/>
      <path id="uuid-f578b325-c582-42db-a375-38416e2b5ef1" data-name="Trazado 5244" d="m177.86,282.38c.53-3.68-.48-7.41-2.78-10.33-1.42-1.75-3.13-3.24-5.05-4.41-.11.45-.19.91-.24,1.38-.12,1.18-.09,2.37.11,3.55.92,4.36,3.88,8.02,7.96,9.81" style="fill: #ffd600; stroke-width: 0px;"/>
      <path id="uuid-b810f26c-e202-40eb-8716-571a0da8651e" data-name="Trazado 5245" d="m155.5,297.36c2.88-.12,5.63-1.19,7.83-3.05,1.33-1.18,2.28-2.72,2.77-4.43.34-1.19.48-2.43.41-3.67-.02-.51-.08-1.02-.17-1.52-2.28,1.23-4.44,2.65-6.46,4.25-1.39,1.08-2.56,2.4-3.48,3.9-.57.97-.91,2.06-.99,3.19-.03.45,0,.91.1,1.35" style="fill: #ffd600; stroke-width: 0px;"/>
      <path id="uuid-75016bf5-f26d-4981-914b-dd0c3f216023" data-name="Trazado 5246" d="m166.45,282.72c.15-.49.25-.98.32-1.49.16-1.23.16-2.47,0-3.7-.21-1.64-.67-3.24-1.34-4.74-.78-1.66-1.67-3.26-2.66-4.8,0,0-.2.44-.46,1.21-.36,1.05-.62,2.14-.75,3.24-.21,1.61-.04,3.24.51,4.77.87,2.23,2.4,4.15,4.38,5.51" style="fill: #ffd600; stroke-width: 0px;"/>
      <path id="uuid-ab75a859-c79d-4159-90f3-3ec0000b4ac9" data-name="Trazado 5247" d="m165.57,283.19c-.9-.05-.95.53-.05.61,3.98.28,7.98.22,11.95-.15,3.9-.28,7.8-.66,11.7-1.19,7.85-1.03,15.57-2.85,23.04-5.45,7.51-2.59,14.56-6.35,20.89-11.13,6.32-4.85,11.62-10.89,15.6-17.79,2.2-3.81,3.89-7.9,5.01-12.16,1.21-4.37,1.65-8.93,1.31-13.45-.08-1.15-.77-1.06-.77.04.14,3.93-.23,7.86-1.11,11.7-.89,3.77-2.2,7.42-3.92,10.88-1.77,3.49-3.88,6.79-6.31,9.84-2.42,3.08-5.13,5.91-8.11,8.44-6.01,5.06-12.82,9.08-20.15,11.9-7.33,2.86-14.96,4.89-22.74,6.07-4.3.69-8.63,1.18-12.97,1.51-4.45.39-8.93.49-13.4.31" style="fill: #ffd600; stroke-width: 0px;"/>
      <path id="uuid-7b8d58e3-7db7-4d37-a0bb-36c9497f4d0b" data-name="Trazado 5248" d="m164.1,283.24c-3.02-2.38-6.56-4.03-10.32-4.81-1.03-.15-2.07-.22-3.12-.2-.44,0-.88.05-1.32.12,1.25,4.33,5.38,7.18,9.88,6.81,1.26-.11,2.49-.47,3.62-1.06.45-.23.88-.51,1.27-.84" style="fill: #ffd600; stroke-width: 0px;"/>
      <path id="uuid-b065eed7-5c46-4593-8df3-96c84128e0c0" data-name="Trazado 5249" d="m135.17,259.07c1.43-3.23,2.34-6.66,2.69-10.17.34-3.54-.46-7.09-2.29-10.13-.45-.82-1.16-1.47-2.02-1.84-1.23-.3-2.53.14-3.32,1.13-.76.99-1.29,2.13-1.56,3.34-3.46,12.05-2.48,25.26-8.51,36.56,5.35-6.45,11.7-10.82,15.02-18.89" style="fill: #ffd600; stroke-width: 0px;"/>
      <path id="uuid-6d75dfa8-4962-49cf-ac79-18eebc0e256a" data-name="Trazado 5250" d="m191.73,142.15l-.69.49c-.15-.32-.27-.66-.39-1-.15-.41.53-.69.71-.3.12.27.24.54.38.81" style="fill: #3a7758; stroke-width: 0px;"/>
      <path id="uuid-c531b762-37fd-48fe-bfe7-74de1811709a" data-name="Trazado 5251" d="m195.9,112.48c.04,2.48,0,4.87-.15,7.13-.03.45-.05.89-.09,1.34-.19,2.51-.59,5-1.21,7.44-.12.43-.24.87-.38,1.27-.66,3.27-2.88,6.02-5.93,7.37-1.97.57-4.09.41-5.95-.46-2.84-1.53-4.85-4.25-5.49-7.42-.11-.3-.19-.61-.26-.92-.57-2.42-.88-4.89-.95-7.38-.03-.31-.04-.63-.04-.97-.07-2.39,0-4.99.19-7.75,0-.24.03-.49.05-.74.19-2.65.49-5.45.85-8.37.04-.35.1-.73.13-1.11.35-2.48.71-5.03,1.15-7.65.05-.32.1-.65.16-.97.27-1.66,5.22-27.46,5.3-27.88.41-2,1.23-5.82,2.54-5.88,1.42-.07,2.66,4.22,3.13,5.84.09.31.19.66.29,1.06.16.56.33,1.19.5,1.89.16.63.71,3.08.85,3.61s.61,2.87.74,3.5c.38,1.88,1.34,7.09,1.42,7.61.23,1.28.81,4.88.88,5.34.23,1.53.8,5.72.87,6.23.3,2.39.57,4.82.78,7.25.05.56.1,1.1.13,1.65.22,2.54.35,5.04.43,7.49,0,0,0,.99.03,1.47" style="fill: #2b6043; stroke-width: 0px;"/>
      <path id="uuid-8160116b-6908-4141-9e7f-4169b4231016" data-name="Trazado 5252" d="m191.36,75.44c-3.31.1-6.74-.15-10-.32.08-.39.16-.78.23-1.18,3.08-.16,6.27-.38,9.38-.33.12.58.26,1.19.39,1.83" style="fill: #8add99; stroke-width: 0px;"/>
      <path id="uuid-6a8a8deb-8a74-4e7f-8ef4-cec8261102e2" data-name="Trazado 5253" d="m192.79,83.05c-1.92.08-3.88-.05-5.79-.07-2.38,0-4.76-.04-7.14-.12.07-.35.13-.74.22-1.11,2.3-.08,4.61-.11,6.92-.12,1.81,0,3.68-.13,5.51-.08.1.49.19.99.27,1.5" style="fill: #8add99; stroke-width: 0px;"/>
      <path id="uuid-ca425392-77ba-4021-8e2f-1adcba6640bd" data-name="Trazado 5254" d="m193.66,88.4c-4.88.31-9.93,0-14.79-.16.07-.35.12-.69.19-1.04,4.76-.13,9.64-.45,14.39-.16.07.46.15.9.22,1.36" style="fill: #8add99; stroke-width: 0px;"/>
      <path id="uuid-76c4e030-9cd0-4ad9-b873-f1f27e6f3403" data-name="Trazado 5255" d="m194.01,150.68c-1.25,1.3-2.97,2.04-4.77,2.06-5.46.45-10.94-4.99-15.51-12.26-.3-.47-.6-.96-.88-1.45-1.91-3.26-3.61-6.65-5.07-10.14-.13-.33-.28-.66-.42-1-1.11-2.7-2.06-5.38-2.8-7.85-.07-.23-.13-.46-.2-.68s-.11-.35-.15-.54c-.61-2.13-1.1-4.25-1.5-6.38-.09-.47-.17-.95-.26-1.42-.51-3.03-.86-6.09-1.03-9.15-.03-.44-.05-.88-.07-1.31-.08-1.86-.09-3.69-.07-5.47,0-.51.03-1.01.04-1.53.11-2.58.31-5.07.58-7.4.07-.53.13-1.04.2-1.54.16-1.19.35-2.34.54-3.45.09-.57.2-1.11.31-1.65.28-1.45.6-2.8.9-4.04.13-.48.26-.94.38-1.36,1.36-4.84,2.84-7.71,3.53-7.64.69.07.35,2.61.35,7.18v1.12c0,1.19.04,2.5.12,3.92.01.41.04.82.08,1.25.08,1.24.19,2.56.35,3.94.04.39.09.78.15,1.17.12.93.26,1.91.42,2.91.24,1.51.53,3,.84,4.45.08.35.16.71.24,1.04.43,1.89.91,3.73,1.45,5.52.12.41.24.81.35,1.22.88,2.84,1.88,5.54,2.93,8.15.13.35.28.69.43,1.03.78,1.88,1.61,3.7,2.46,5.46.18.35.35.69.5,1.04,1.15,2.3,2.31,4.47,3.46,6.56.17.3.35.6.51.89,1.57,2.77,3.12,5.34,4.57,7.7.22.35.42.71.63,1.04,5.47,8.96,9.22,15.07,6.34,18.62" style="fill: #2b6043; stroke-width: 0px;"/>
      <path id="uuid-f438cee0-7049-436d-94cb-d604c4f2da02" data-name="Trazado 5256" d="m168.15,74.79c-1.42.27-2.84.52-4.25.71.13-.48.26-.93.38-1.36,1.3-.15,2.6-.3,3.88-.46v1.12" style="fill: #8add99; stroke-width: 0px;"/>
      <path id="uuid-7493b8fd-0790-4d5d-8860-8d56c8b72cdd" data-name="Trazado 5257" d="m168.34,79.96c-1.86.57-3.76.98-5.69,1.22.1-.57.2-1.11.31-1.65,1.77-.26,3.55-.51,5.3-.82.01.41.04.82.08,1.25" style="fill: #8add99; stroke-width: 0px;"/>
      <path id="uuid-e2e06cba-571f-468f-925f-0dd64ef7d21b" data-name="Trazado 5258" d="m168.85,85.07c-2.29.51-4.6.87-6.93,1.1.07-.53.13-1.04.21-1.54,2.19-.19,4.38-.41,6.58-.73.04.39.1.78.15,1.18" style="fill: #8add99; stroke-width: 0px;"/>
      <path id="uuid-b48f51a1-bffb-41c7-91ae-e876d84cbad5" data-name="Trazado 5259" d="m170.35,93.46c-2.95.86-5.99,1.41-9.06,1.62,0-.51.03-1.01.04-1.53,2.93-.31,5.85-.57,8.77-1.14.08.35.16.71.24,1.04" style="fill: #8add99; stroke-width: 0px;"/>
      <path id="uuid-d6118740-6cff-4940-8559-295eb91d3753" data-name="Trazado 5260" d="m172.17,100.19c-3.42,1.32-7.08,1.89-10.73,1.68-.03-.45-.05-.88-.07-1.31,1.68-.26,3.41-.26,5.08-.5,1.81-.26,3.58-.68,5.35-1.06.12.4.24.81.35,1.22" style="fill: #8add99; stroke-width: 0px;"/>
      <path id="uuid-89a59215-cb4d-4c83-be0d-e8cb16848fa2" data-name="Trazado 5261" d="m175.53,109.36c-4.02,1.88-8.38,2.93-12.82,3.08-.1-.48-.18-.95-.26-1.42,1.93-.07,3.85-.27,5.75-.61,2.36-.48,4.66-1.18,6.89-2.08.13.35.28.69.43,1.02" style="fill: #8add99; stroke-width: 0px;"/>
      <path id="uuid-32af282d-b0cd-492e-9ed5-323d14ba95b0" data-name="Trazado 5262" d="m190.53,155.47c-.77,1.91-2.32,3.4-4.25,4.08-3.45.63-7.01-.31-9.71-2.56-.41-.26-.81-.54-1.22-.85-2-1.49-3.86-3.15-5.57-4.96-.28-.3-.58-.62-.88-.95-1.89-2.08-3.65-4.27-5.27-6.57-.22-.3-.43-.61-.63-.92-1.49-2.16-2.87-4.4-4.13-6.71-.21-.35-.39-.71-.6-1.06-1.08-2.06-2.11-4.18-3.03-6.36-.13-.3-.27-.61-.39-.9-.78-1.89-1.5-3.84-2.13-5.8-.18-.54-.35-1.06-.5-1.63-.74-2.48-1.34-5.01-1.77-7.57,0-.04,0-.1-.03-.13-.08-.45-.15-.88-.22-1.33-.31-2.04-.51-4.08-.63-6.06-.03-.53-.05-1.03-.07-1.54-.08-1.93-.07-3.8,0-5.54,0-.51.04-1.03.07-1.51.07-.93.15-1.81.24-2.62.07-.55.15-1.1.23-1.6.55-3.55,1.46-5.85,2.45-5.96.89-.11,1.45,1.6,2.22,4.58.11.38.22.77.31,1.19.2.76.82,3.17.9,3.55.46,1.66.97,3.53,1.62,5.53.1.31.21.64.31.96.54,1.65,1.16,3.38,1.89,5.18.13.35.27.71.43,1.06,1.06,2.57,2.25,5.09,3.58,7.53.08.16.16.32.26.49s.22.39.35.6c.91,1.63,1.86,3.19,2.84,4.7.19.28.38.58.58.87,1.35,2.04,2.74,3.94,4.15,5.72.19.26.39.51.6.76,1.72,2.15,3.44,4.14,5.08,5.96.24.26.48.51.69.76,1.42,1.56,4.53,4.85,4.74,5.08,1.49,1.6,2.84,3.06,4,4.45.24.3.49.6.71.89,2.68,3.41,3.95,6.31,2.79,9.22" style="fill: #2b6043; stroke-width: 0px;"/>
      <path id="uuid-d3999765-3faf-48c5-9842-698b3ea04c9a" data-name="Trazado 5263" d="m155.01,92.19c-1.69.71-3.43,1.3-5.2,1.77.07-.56.15-1.1.23-1.6,1.55-.42,3.11-.88,4.66-1.38.11.38.22.77.31,1.19" style="fill: #8add99; stroke-width: 0px;"/>
      <path id="uuid-e21a078b-9222-463a-962e-4805ed29837a" data-name="Trazado 5264" d="m155.92,95.72c-2.06.99-4.21,1.79-6.42,2.39,0-.51.04-1.03.07-1.51,2.06-.55,4.09-1.2,6.08-1.95.1.35.19.71.27,1.06" style="fill: #8add99; stroke-width: 0px;"/>
      <path id="uuid-e3002974-8085-4493-974f-15029f041246" data-name="Trazado 5265" d="m157.85,102.22c-2.57,1.47-5.38,2.48-8.3,2.99-.03-.52-.05-1.03-.07-1.54,2.73-.63,5.43-1.43,8.06-2.41.1.31.2.63.31.96" style="fill: #8add99; stroke-width: 0px;"/>
      <path id="uuid-feb955ea-6f1a-4424-bf06-87faf4d157ac" data-name="Trazado 5266" d="m160.17,108.45c-3.11,1.72-6.37,3.14-9.75,4.25,0-.04,0-.09-.03-.13-.08-.45-.15-.88-.22-1.33.07-.01.15-.03.22-.05,3.22-.99,6.35-2.26,9.34-3.81.13.35.27.71.43,1.06" style="fill: #8add99; stroke-width: 0px;"/>
      <path id="uuid-558997b1-2134-48e6-a78b-eadc0f719738" data-name="Trazado 5267" d="m164.35,117.05c-3.61,2.2-7.53,3.85-11.64,4.87-.17-.54-.35-1.08-.5-1.64,4.04-.85,7.93-2.31,11.55-4.31.08.16.16.32.26.49s.22.39.35.6" style="fill: #8add99; stroke-width: 0px;"/>
      <path id="uuid-dcbe5cdc-f2fa-4440-9c1e-66ecd8224808" data-name="Trazado 5268" d="m79.26,114.13c-.11.16-.22.31-.35.45-.77.74-1.73,1.24-2.77,1.45-.13.03-.26.06-.39.08-10.99,1.7-29.07-26.83-38.73-47.1-1.85-3.79-3.51-7.67-4.96-11.62-.88-2.11-1.44-4.35-1.65-6.63,0-.64.11-1.06.38-1.23.35-.25,1.02,0,1.97.71,7.2,6.8,13.94,14.06,20.17,21.76,8.51,9.15,16.3,18.94,23.3,29.3,1.5,2.35,2.67,4.89,3.48,7.56.65,1.74.49,3.68-.44,5.29" style="fill: #5fa873; stroke-width: 0px;"/>
      <path id="uuid-7733a7ed-d8f1-494b-a1d3-b36a80522568" data-name="Trazado 5269" d="m79.69,108.85c-7.55-7.15-14.63-14.85-21.45-22.55-10.07-11.21-19.37-23.08-27.85-35.54,0-.64.11-1.06.38-1.23.35-.24,1.02,0,1.97.71,8.71,11.77,17.65,23.33,27.41,34.28,5.17,5.8,10.57,11.34,16.06,16.77,1.5,2.35,2.67,4.89,3.48,7.56" style="fill: #8add99; stroke-width: 0px;"/>
      <path id="uuid-345b1fd4-eca9-4467-95bd-3638edf1f9f0" data-name="Trazado 5270" d="m78.89,114.59c-.77.74-1.73,1.24-2.77,1.45-.13.03-.26.06-.39.08-7.91-7.95-15.38-16.33-22.36-25.11-5.78-7.07-11.28-14.4-16.37-21.98-1.85-3.79-3.51-7.67-4.96-11.62,7.23,11.42,15.14,22.4,23.69,32.88,7.27,8.52,15,16.64,23.16,24.32" style="fill: #8add99; stroke-width: 0px;"/>
      <path id="uuid-534c3179-7dc0-4ad1-85f2-7ea5c6d46cd1" data-name="Trazado 5271" d="m85.27,106.76c-.02,2.01-.37,4-1.04,5.89-.52,1.47-1.51,2.73-2.81,3.58-1.14.67-2.45,1-3.77.93-.39-.01-.78-.06-1.17-.14-.95-.18-1.86-.53-2.69-1.04-16.95-9.93-24.96-80.2-26.46-93.33-.63-5.43-1-9.61-1.15-12.8-.21-2.53-.18-5.07.1-7.59.23-1.55.63-2.13,1.09-2.24s.89.17,1.44.74c1.23,1.49,2.27,3.13,3.08,4.89,1.82,3.55,3.9,8.42,5.96,13.49,11.62,28.49,28.07,68.78,27.43,87.61" style="fill: #5fa873; stroke-width: 0px;"/>
      <path id="uuid-c3104516-1835-46fa-a439-08349ac8f2ef" data-name="Trazado 5272" d="m76.48,117.03c-.95-.18-1.86-.53-2.69-1.04-2.63-7.37-4.7-14.99-6.93-22.42-3.28-10.85-6.33-21.77-9.16-32.75-4.35-16.8-8.54-33.81-11.52-50.97-.21-2.53-.18-5.07.1-7.59,4.28,19.02,8.05,38.14,12.96,57.03,2.84,10.98,5.9,21.9,9.18,32.78,2.52,8.34,5.59,16.58,8.06,24.95" style="fill: #8add99; stroke-width: 0px;"/>
      <path id="uuid-2b838c3b-0c40-4d5d-8217-2bd00314143b" data-name="Trazado 5273" d="m85.27,106.76c-.02,2.01-.37,4-1.04,5.89-6.22-15.45-11.28-31.55-16.46-47.22C60.34,44.22,54.01,22.63,48.81.77c1.23,1.49,2.27,3.13,3.08,4.89,5.85,19.42,11.08,39,17.51,58.25,4.83,14.45,10.5,28.61,15.88,42.86" style="fill: #8add99; stroke-width: 0px;"/>
      <path id="uuid-9bca4c5e-6246-43af-8785-de2c3867b039" data-name="Trazado 5274" d="m129.23,21.44c-.82,2.88-1.94,6.09-2.88,8.7-.08.25-.17.48-.25.71-14.26,39.47-28.1,77.82-40.09,85.56-.49.33-1.01.61-1.56.84-1.14.52-2.4.69-3.63.5-1.17-.22-2.25-.76-3.12-1.56l-.35-.33c-.42-.42-.77-.9-1.06-1.42-8.22-14.64,27-68.01,41.63-87.88,2.45-3.45,5.09-6.75,7.92-9.88.86-1.01,1.91-1.86,3.07-2.51.28-.15.62-.17.91-.05,1,.54.45,3.66-.61,7.34" style="fill: #5fa873; stroke-width: 0px;"/>
      <path id="uuid-301c1ba2-25fe-4071-a301-f61336e75b72" data-name="Trazado 5275" d="m128.92,14.16c-9.79,14.76-18.82,30.01-27.06,45.69-9.53,18.21-17.41,38.34-25.39,57.17-.5-.1-.8-.78-1.1-1.32,5.59-18.43,15.44-37.75,24.13-54.77,7.84-15.3,16.64-30.08,26.36-44.26.86-1.01,1.91-1.86,3.07-2.51" style="fill: #8add99; stroke-width: 0px;"/>
      <path id="uuid-b10a442a-7934-43bd-8385-9996d44f8450" data-name="Trazado 5276" d="m129.22,21.44c-.82,2.88-1.94,6.09-2.88,8.7-5.88,10.59-11.64,21.24-16.96,32.13-8.68,17.73-15.8,35.96-23.37,54.12-.49.33-1.01.61-1.56.84,6.21-18.48,13.7-36.5,22.41-53.94,6.75-14.32,14.21-28.29,22.37-41.86" style="fill: #8add99; stroke-width: 0px;"/>
      <path id="uuid-2ccbd706-d01d-4762-a021-304e2ad9943d" data-name="Trazado 5277" d="m136.66,116.98c-1.18-1.07-1.82-2.62-1.73-4.21.07-.35.28-.77.65-.79.23.02.44.11.6.28,1.05.86,1.89,1.96,2.46,3.19-.51-1.18-.64-2.48-.35-3.74.22-.66.85-1.32,1.51-1.11.45.2.76.62.82,1.1.14.68.17,1.38.11,2.07-.03,1.75-.25,3.49-.66,5.19-.31,1.06-.76.65-1.42.04-.69-.63-1.34-1.3-1.95-2" style="fill: #ff881d; stroke-width: 0px;"/>
      <path id="uuid-fe32fcb3-ef6c-4d27-92bd-51c0f1ae7778" data-name="Trazado 5278" d="m144.9,119.77c1.52-.48,2.75-1.62,3.34-3.11.09-.35.07-.82-.26-.99-.21-.08-.45-.08-.66,0-1.31.35-2.52.98-3.55,1.86.96-.85,1.62-1.99,1.89-3.24.08-.71-.22-1.55-.91-1.64-.49,0-.94.24-1.21.66-.41.56-.73,1.18-.96,1.83-.71,1.6-1.23,3.28-1.56,5-.16,1.06.42.9,1.28.63.89-.28,1.76-.62,2.61-1" style="fill: #ff881d; stroke-width: 0px;"/>
      <path id="uuid-90aa4eee-6794-4bac-9219-2509e290bf4f" data-name="Trazado 5279" d="m144.89,121.48c1.6-.07,3.14.58,4.2,1.77.21.3.35.74.1,1.01-.17.15-.39.23-.62.23-1.35.13-2.71-.04-3.98-.51,1.19.47,2.21,1.3,2.9,2.39.32.62.33,1.53-.28,1.86-.46.17-.97.1-1.36-.19-.58-.38-1.1-.85-1.54-1.39-1.22-1.26-2.29-2.64-3.19-4.14-.52-.96.08-1,.98-1.04.93-.04,1.87-.03,2.8.03" style="fill: #ff881d; stroke-width: 0px;"/>
      <path id="uuid-5967ae10-169d-4174-b951-4097c17510f5" data-name="Trazado 5280" d="m135.37,122.62c-1.53.46-3.18.21-4.51-.69-.27-.24-.51-.63-.35-.96.13-.18.33-.31.55-.35,1.28-.45,2.64-.61,3.99-.46-1.27-.17-2.46-.73-3.39-1.61-.46-.52-.71-1.42-.17-1.88.4-.28.92-.33,1.36-.14.65.23,1.27.56,1.83.97,1.49.93,2.86,2.02,4.1,3.25.74.8.16.98-.71,1.24-.89.27-1.8.48-2.72.64" style="fill: #ff881d; stroke-width: 0px;"/>
      <path id="uuid-4b129158-bf97-4fa0-98b7-11a7e5773c4d" data-name="Trazado 5281" d="m136.6,124.01c-1.36.84-2.27,2.24-2.48,3.82,0,.35.13.8.49.89.23.03.45-.03.64-.16,1.19-.65,2.22-1.56,3-2.67-.73,1.06-1.1,2.32-1.06,3.6.09.71.59,1.46,1.28,1.38.47-.11.86-.46,1.01-.93.26-.64.43-1.32.49-2.01.3-1.73.4-3.48.3-5.23-.11-1.08-.62-.78-1.4-.3-.79.49-1.56,1.03-2.29,1.6" style="fill: #ff881d; stroke-width: 0px;"/>
      <path id="uuid-72bd5173-8fd9-4699-9b1e-2f4cce34c066" data-name="Trazado 5282" d="m142.06,120.77c.2,1.13-.56,2.21-1.69,2.4-1.13.2-2.21-.56-2.4-1.69-.2-1.13.56-2.21,1.69-2.4,1.13-.2,2.21.56,2.41,1.69,0,0,0,0,0,0" style="fill: #ff881d; stroke-width: 0px;"/>
      <path id="uuid-73de68a3-5c06-4630-b95e-81ae1b9a7a7c" data-name="Trazado 5283" d="m135.78,231.67c-1.92.27-3.87-.06-5.6-.93-.66-.35-2.24-1.15-2.36-2.42-.04-.23,0-.47.12-.67.45-.67,2.13-.54,4.21.33-1.19-.92-4.47-3.55-3.93-4.63.08-.13.19-.23.33-.29,1.7-.86,5.73,2.44,6.34,2.94-1.33-1.5-6.21-7.12-4.96-8.8.14-.18.34-.31.56-.37,2.25-.67,5.99,5.76,6.5,6.65-1.15-3.16-1.28-5.78-.15-6.53.23-.15.49-.23.77-.21,2,.18,2.84,6.38,2.92,6.96,0-.62.19-5.32,1.96-5.73.29-.06.59-.01.85.13,1.96,1.11,1.79,8.95-2.48,12.05-1.52.97-3.28,1.5-5.08,1.53" style="fill: #ff881d; stroke-width: 0px;"/>
      <path id="uuid-bdb24245-6a5d-4c87-91a4-47365e73903b" data-name="Trazado 5284" d="m154.25,149.47c-.95,1.12-2.05,2.11-3.27,2.93.73-.81,1.33-1.73,1.77-2.73,2-3.73,2.77-6.13.79-5.17-2.99,2.62-5.64,5.62-7.88,8.91.86-1.1,1.46-2.38,1.75-3.75.79-2.74,1.13-4.85-.22-4.61-1.35.24-2.97,7.05-5.49,9.15.96-1.93.35-4.19-.35-3.03-1.38,2.14-3.13,4.03-5.17,5.57-4.53,3.32-13.2-.41-23.8,6.12-1.92,1.16-3.74,2.49-5.45,3.95-1.56-1.45-3.19-2.81-4.9-4.09-2.52-2.19-5.48-3.8-8.69-4.72-4.11-.82-8.13-2.03-12.01-3.6-8.04-4.16-3.9-19.33-7.91-21.82l-.29.29c-2.97,3.16-4.26,7.54-3.49,11.81-2.09-2.85-3.76-6-4.95-9.33-1.11-3.16-.55-4.23-1.31-4.37s-1.57,4.83-.77,9.02c.48,2.52,1.45,4.93,2.84,7.09-2.49-4.07-5.21-7.99-8.15-11.74-.73-.08-.87,3.52.18,7.33,1.02,2.98,2.72,5.68,4.96,7.89,0,0-8.07-11.02-8.59-11.1s-.54.17-.54.17c-.54,2.73-.03,5.57,1.44,7.94,1.75,3.34,2.03,4.14-1.03,1.46-3.06-2.68-2.84-3.86-3.4-3.11.22,3.71,2,7.16,4.91,9.48,4.43,4.19-1.06,4.2-1.77,4.82,2.74.16,5.41.9,7.83,2.19,3.54,1.76,6.91,3.86,10.04,6.29,2.27,1.68,4.98,2.63,7.8,2.75.53,0,.79.99,2.28,2.48,1.51,1.39,3.17,2.6,4.97,3.59-2.81.8-5.67,1.38-8.57,1.72-3.32.24-6.65.28-9.97.11-.53.35.8,1.75,2.7,3.28,1.7,1.38,4.42,2.62,10.9,1.1,4.7-1.08,4.29-.29-.39,1.01-2.52.45-5.07.7-7.63.74-.35.4,1.8,1.33,3.28,1.86,2.33.39,4.72.03,6.83-1.03,2.62-1.06,3-.87.48.48-1.48.8-3.1,1.33-4.76,1.57,1.73,1.45,4.27,1.41,5.95-.1,2.88-1.97,3.86-2.13,1.85-.57-2.01,1.55-3.16,1.71-3.22,2.01s.62.28,1.54.28c1.36,0,2.66-.57,3.58-1.57.91-.91,1.82-1.88,2.62-2.74.89-1.04,2-1.85,3.26-2.38,0,0,7.04.96,8.8.95,2.45.08,4.9-.19,7.27-.8,7.58-2.39,15.63-6.03,19.47-7.35,3.29-1.16,4.35-.2,4.48.6.08.59.11.57.11.57,1.01-.74,1.66-1.87,1.8-3.11-.05-1.65-1.13-3.08-2.7-3.58-1.91-.98-3.97-1.64-6.09-1.96-1.15-.22-2.33-.32-3.5-.31,0,0,2.06-4.19,13.2-6.77,14.42-3.34,19.92-9.8,21.57-17.75.03-.1,0,0,.03-.15-1.77-.86-2.76,3.14-5,5.85" style="fill: #821e46; stroke-width: 0px;"/>
      <path id="uuid-892b00d7-c8ae-4251-ad2c-d56f7b1d4802" data-name="Trazado 5285" d="m130.26,171.44l-.04.35c-.15.46-.58.77-1.06.77-.55-.03-1-.46-1.06-1.01-.02-.49.35-.91.84-.93.04,0,.08,0,.11,0,.65,0,1.23.45,1.23.81" style="fill: #ffd600; stroke-width: 0px;"/>
      <path id="uuid-28360241-1f7a-4a40-9e20-1c1e424e659a" data-name="Trazado 5286" d="m58.67,264.43c.09-5.73,2.33-11.22,6.27-15.39,1.64-1.89,4.17-2.75,6.62-2.25,2.05.98,3.53,2.86,3.99,5.09,1.93,8.06,1.12,16.52-2.3,24.07-1.47,3.9-5.03,15.73-9.93,8.27-3.54-5.96-5.17-12.87-4.67-19.79" style="fill: #ffd600; stroke-width: 0px;"/>
      <path id="uuid-6fa51630-2e0d-47bc-b4e5-c1ed391621a4" data-name="Trazado 5287" d="m92.83,293.51c5.62-1.15,10.6-4.37,13.96-9.01,1.56-1.96,1.94-4.61.99-6.93-1.34-1.83-3.47-2.94-5.74-2.98-8.27-.41-16.45,1.96-23.23,6.72-3.55,2.17-14.54,7.86-6.3,11.28,6.52,2.38,13.6,2.7,20.31.93" style="fill: #821e46; stroke-width: 0px;"/>
      <path id="uuid-2e8e5351-3b8f-4c98-9d5f-77da38224fb4" data-name="Trazado 5288" d="m87.58,307.21c3.41,4.61,4.97,10.33,4.37,16.03-.15,2.5-1.64,4.72-3.9,5.81-2.23.46-4.54-.13-6.26-1.62-6.43-5.23-10.93-12.45-12.79-20.52-1.19-3.98-5.56-15.55,2.84-12.6,6.44,2.58,11.93,7.08,15.73,12.88" style="fill: #821e46; stroke-width: 0px;"/>
      <path id="uuid-4b4616ba-249b-4633-b9c7-c3b595af9514" data-name="Trazado 5289" d="m38.21,286.44c-5.14-2.55-9.14-6.92-11.21-12.27-1.01-2.29-.7-4.95.81-6.95,1.77-1.43,4.1-1.95,6.31-1.42,8.1,1.71,15.4,6.08,20.75,12.41,2.88,3,12.05,11.29,3.22,12.51-6.91.64-13.84-.85-19.87-4.28" style="fill: #ffd600; stroke-width: 0px;"/>
      <path id="uuid-cc6b74e2-0d99-4d3b-811c-c4ca17a89073" data-name="Trazado 5290" d="m39.79,301.01c-4.47,3.59-7.44,8.73-8.31,14.39-.49,2.46.38,4.99,2.29,6.62,2.03,1.02,4.42,1.03,6.47.03,7.54-3.42,13.74-9.25,17.59-16.58,2.17-3.55,9.33-13.62.45-12.91-6.88.86-13.33,3.81-18.49,8.45" style="fill: #821e46; stroke-width: 0px;"/>
      <path id="uuid-010272a6-6f34-44f5-bf61-3cbb2dbfc8c0" data-name="Trazado 5291" d="m61.89,269.54c.05-3.34,1.36-6.54,3.66-8.97.96-1.1,2.43-1.61,3.86-1.31,1.2.57,2.05,1.67,2.33,2.97,1.12,4.7.65,9.63-1.34,14.03-.86,2.27-2.93,9.16-5.78,4.82-2.06-3.48-3.01-7.5-2.72-11.53" style="fill: #ff881d; stroke-width: 0px;"/>
      <path id="uuid-1c7946ad-42b0-41a3-8084-b8a43c67e261" data-name="Trazado 5292" d="m81.02,290.94c3.28-.67,6.19-2.54,8.15-5.25.91-1.14,1.13-2.69.57-4.04-.78-1.07-2.02-1.71-3.34-1.74-4.82-.24-9.58,1.13-13.54,3.9-2.07,1.26-8.47,4.58-3.67,6.57,3.8,1.38,7.93,1.57,11.84.54" style="fill: #ff881d; stroke-width: 0px;"/>
      <path id="uuid-ab2a20ae-9cc3-47c2-8786-8c78a121bfc9" data-name="Trazado 5293" d="m77.97,298.94c1.99,2.69,2.89,6.02,2.55,9.35-.09,1.46-.95,2.75-2.27,3.39-1.3.27-2.65-.08-3.65-.94-3.74-3.05-6.36-7.26-7.44-11.96-.71-2.32-3.24-9.06,1.66-7.34,3.75,1.51,6.95,4.13,9.17,7.51" style="fill: #ff881d; stroke-width: 0px;"/>
      <path id="uuid-58edb735-ae79-46e4-8380-33abc0f639d4" data-name="Trazado 5294" d="m45.95,287.39c-3-1.48-5.33-4.03-6.53-7.15-.59-1.34-.41-2.89.47-4.05,1.03-.83,2.39-1.14,3.68-.83,4.72,1,8.98,3.54,12.1,7.23,1.68,1.75,7.02,6.58,1.87,7.29-4.02.38-8.07-.49-11.59-2.48" style="fill: #ff881d; stroke-width: 0px;"/>
      <path id="uuid-908e6bfa-1aa9-4afe-9647-de615fa998cd" data-name="Trazado 5295" d="m50.11,295.34c-2.61,2.09-4.33,5.09-4.84,8.39-.29,1.43.22,2.91,1.33,3.86,1.18.59,2.58.6,3.77.02,4.4-1.99,8.01-5.39,10.26-9.66,1.27-2.07,5.44-7.94.26-7.52-4.01.5-7.77,2.22-10.78,4.92" style="fill: #ff881d; stroke-width: 0px;"/>
      <path id="uuid-d1695a1d-47fb-428b-9b35-967f00d88eba" data-name="Trazado 5296" d="m71.57,290.45c-.88,3.66-4.56,5.91-8.22,5.03-3.66-.88-5.91-4.56-5.03-8.22.88-3.66,4.56-5.91,8.22-5.03,3.66.88,5.91,4.56,5.03,8.22,0,0,0,0,0,0" style="fill: #ffd600; stroke-width: 0px;"/>
      <path id="uuid-ec249e40-5850-4380-8096-4bc271481332" data-name="Trazado 5297" d="m83.58,267.23c1.14-.88,2.48-1.46,3.9-1.68.41-.08.83,0,1.18.23.64.51.37,1.54-.03,2.25-1.74,2.7-4.1,4.94-6.89,6.53-2.78,1.59-5.37,3.49-7.71,5.67.63-1.04,1.12-2.16,1.46-3.33,1.78-3.88,4.57-7.22,8.08-9.66" style="fill: #ffd600; stroke-width: 0px;"/>
      <path id="uuid-0314a087-1123-42c9-88af-04e4c4d0d09e" data-name="Trazado 5298" d="m52.51,263.2c-.85-1.16-1.99-2.09-3.29-2.69-.37-.19-.8-.22-1.19-.1-.76.31-.78,1.37-.6,2.17.93,3.07,2.58,5.88,4.82,8.18,2.23,2.29,4.2,4.83,5.86,7.56-.32-1.18-.48-2.39-.49-3.61-.64-4.22-2.41-8.2-5.11-11.51" style="fill: #821e46; stroke-width: 0px;"/>
      <path id="uuid-6539518f-d692-4459-b271-a11c2bd868e3" data-name="Trazado 5299" d="m36.05,293.49c-1.33.55-2.51,1.42-3.41,2.54-.27.32-.41.72-.39,1.13.12.81,1.15,1.09,1.96,1.1,3.21-.15,6.33-1.08,9.1-2.69,2.76-1.61,5.7-2.9,8.76-3.84-1.22.02-2.44-.11-3.62-.4-1.42-.14-2.86-.14-4.28-.02-2.82.24-5.57.97-8.13,2.18" style="fill: #ffd600; stroke-width: 0px;"/>
      <path id="uuid-d76a9c48-2599-4f39-9c0c-181776dc3285" data-name="Trazado 5300" d="m61.34,313.39c.13,1.43.62,2.81,1.42,4.01.22.35.57.61.97.71.81.12,1.38-.77,1.63-1.55.8-3.11.83-6.36.11-9.49-.73-3.11-1.1-6.3-1.1-9.5-.34,1.17-.82,2.29-1.45,3.34-1.64,3.95-2.19,8.26-1.59,12.49" style="fill: #ffd600; stroke-width: 0px;"/>
      <path id="uuid-f5333acd-a192-4ee7-9a1e-eb4a380d8b65" data-name="Trazado 5301" d="m92.26,303.17c1.39.37,2.86.37,4.25.02.4-.09.76-.33.99-.67.39-.71-.26-1.56-.9-2.06-2.65-1.81-5.7-2.95-8.89-3.33-3.18-.37-6.3-1.11-9.31-2.2.88.38,1.93,1.84,2.65,2.48,3.15,2.88,7.02,4.87,11.21,5.74" style="fill: #ffd600; stroke-width: 0px;"/>
      <path id="uuid-7e790296-0960-488e-909b-33cfc5f7e839" data-name="Trazado 5302" d="m148.17,169.7c-.2,1-.41,1.72-.61,2.71.79-.09,1.59-.01,2.35.22.76.25,1.24.98,1.18,1.77-.15.62-.58,1.13-1.17,1.38-1.48.67-3.23.15-4.1-1.22-.8-1.61-.8-3.5.02-5.11,1.57-1.95,4.13-2.79,6.55-2.17,2.84.52,5.78,3.01,5.53,5.84-.84,3.17-3.15,5.73-6.21,6.9-2.74,1.08-5.82.95-8.46-.35-.15,1.5-.5,2.13-.6,3.47,3.49.68,7.09.57,10.53-.33,3.06-1.05,5.62-3.21,7.18-6.06,1.49-2.74,1.31-6.09-.47-8.66-1.03-1.24-2.35-2.21-3.85-2.81-2.43-1.17-5.18-1.45-7.8-.81-2.75.77-4.95,2.85-5.88,5.55-.83,2.61.1,5.46,2.31,7.09,2.41,1.52,5.52,1.34,7.74-.45.73-.56,1.25-1.34,1.49-2.23.23-1.42-.45-2.82-1.72-3.51-1.24-.69-2.61-1.11-4.02-1.21" style="fill: #8add99; stroke-width: 0px;"/>
      <path id="uuid-e810a2f7-93e4-4ff8-bd71-7dc92131ddf6" data-name="Trazado 5303" d="m52.89,249.56c0,2.34-1.89,4.23-4.23,4.24-2.34,0-4.23-1.89-4.24-4.23,0-2.34,1.89-4.23,4.23-4.24h0c2.34,0,4.23,1.89,4.23,4.23h0" style="fill: #a90707; stroke-width: 0px;"/>
      <path id="uuid-2d096433-d869-4c6f-8457-f41b67646e29" data-name="Trazado 5304" d="m64.24,173.09c0,2.15-1.75,3.9-3.9,3.9-2.15,0-3.9-1.75-3.9-3.9,0-2.15,1.75-3.9,3.9-3.9h0c2.15,0,3.9,1.75,3.9,3.9" style="fill: #ff881d; stroke-width: 0px;"/>
      <path id="uuid-1e9399df-0cda-4975-933d-7c90a40075e2" data-name="Trazado 5305" d="m134.58,149.95c2.36-1.49,4.46-3.35,6.23-5.51,1.78-2.17,2.81-4.86,2.94-7.66.07-.74-.11-1.48-.52-2.1-.68-.74-1.72-1.02-2.68-.71-1,.3-1.93.8-2.74,1.47-7.56,6.4-6.87,11.94-21.4,20.33,6.35-1.89,12.44-1.98,18.17-5.82" style="fill: #ffd600; stroke-width: 0px;"/>
      <path id="uuid-86e9055e-5e93-4bd5-862e-932283289746" data-name="Trazado 5306" d="m110.72,147.57c1.28-3.13,3.39-5.85,6.11-7.87.85-.67,1.87-1.07,2.94-1.18,1.1-.09,2.13.51,2.6,1.51.17.54.19,1.11.05,1.66-.53,1.8-1.61,3.4-3.09,4.56-2.24,2.03-4.78,3.71-6.99,5.77-2.34,1.96-3.97,4.62-4.67,7.59.53-4.13,1.55-8.17,3.05-12.05" style="fill: #8add99; stroke-width: 0px;"/>
      <path id="uuid-736e8bbf-1e41-4a9b-9987-5525f3634cf0" data-name="Trazado 5307" d="m60.68,186.8c-.66.23-1.33.42-2.01.58-.76.24-1.56.35-2.36.33-2.05.08-4.09-.13-6.08-.64-3.48-.89-6.78-2.41-9.72-4.48-6.32-4.69-11.04-11.22-13.5-18.7-2.42-7.45-3.54-15.26-3.33-23.09.06-11.75,1.9-23.75-1.17-35.1,9.97,10.07,20.29,20.7,24.4,34.26,1.96,6.47,12.64,16.69,6.9,20.27-6.6,4.73-8.12,13.91-3.4,20.51,2.42,3.38,6.15,5.57,10.27,6.05" style="fill: #d51616; stroke-width: 0px;"/>
    </g>
  </g>
</svg>